<?xml version="1.0" standalone="no"?>
<!DOCTYPE svg PUBLIC "-//W3C//DTD SVG 20010904//EN"
 "http://www.w3.org/TR/2001/REC-SVG-20010904/DTD/svg10.dtd">
<svg version="1.0" xmlns="http://www.w3.org/2000/svg"
 width="952.000000pt" height="952.000000pt" viewBox="0 0 952.000000 952.000000"
 preserveAspectRatio="xMidYMid meet">
<metadata>
Created by potrace 1.14, written by Peter Selinger 2001-2017
</metadata>
<g transform="translate(0.000000,952.000000) scale(0.100000,-0.100000)"
fill="#000000" stroke="none">
<path d="M2585 9029 c-601 -40 -942 -132 -1280 -348 -254 -161 -444 -369 -570
-620 -137 -276 -189 -508 -215 -974 -50 -886 -111 -3492 -96 -4112 18 -754
135 -1209 424 -1649 150 -228 339 -408 587 -557 77 -47 190 -103 238 -118 20
-7 37 -17 37 -22 0 -6 5 -7 12 -3 7 5 8 3 3 -6 -5 -9 -1 -10 16 -6 20 6 21 5
7 -4 -36 -23 -258 76 -446 200 -57 38 -98 62 -92 55 22 -26 186 -129 304 -191
289 -150 636 -229 1156 -265 252 -18 4027 -18 4260 0 314 23 596 75 800 146
186 65 472 224 575 319 31 29 25 26 -25 -12 -71 -54 -184 -124 -270 -167 -76
-39 -191 -85 -184 -74 7 12 -3 11 -27 -1 -10 -6 -19 -7 -19 -3 0 4 29 20 65
34 36 15 62 22 58 16 -3 -6 9 1 28 15 19 14 61 40 94 59 323 180 595 467 769
808 180 353 247 639 277 1186 13 239 2 1064 -26 1845 -24 674 -27 846 -16 830
5 -8 12 -12 14 -10 13 16 47 100 52 130 3 19 10 39 15 46 6 6 7 13 4 16 -3 3
2 34 11 68 9 34 18 107 21 163 l4 102 -21 -60 c-124 -352 -175 -478 -192 -468
-5 3 -7 1 -4 -4 9 -15 -13 -55 -46 -84 -17 -15 -28 -36 -29 -55 -1 -21 -6 -30
-15 -27 -8 3 -13 -2 -13 -13 0 -9 -8 -26 -17 -36 -9 -11 -18 -25 -19 -32 -3
-18 -45 -76 -56 -76 -4 0 -4 8 -1 17 6 15 5 16 -9 3 -9 -8 -12 -17 -7 -18 5
-2 6 -9 3 -14 -4 -7 -2 -8 4 -4 11 6 12 3 12 -21 0 -5 -8 -8 -18 -9 -34 -2
-39 -4 -39 -19 0 -18 18 -20 35 -3 18 18 26 2 10 -21 -8 -12 -17 -18 -21 -15
-3 3 -11 -4 -17 -17 -11 -19 -10 -21 3 -16 12 5 15 -2 14 -33 -1 -21 -5 -36
-8 -34 -4 2 -9 -3 -12 -11 -4 -10 -1 -12 10 -8 10 4 14 2 9 -5 -3 -6 -2 -13 3
-17 6 -3 4 -22 -5 -47 -8 -23 -33 -110 -55 -193 -53 -198 -101 -345 -111 -339
-4 3 -10 -7 -14 -21 -3 -14 -10 -25 -14 -25 -5 0 -12 -10 -15 -21 -6 -17 -9
-19 -16 -8 -7 11 -9 10 -9 -3 0 -10 -4 -18 -10 -18 -5 0 -10 -5 -10 -12 0 -9
3 -9 12 0 7 7 16 12 20 12 5 0 -2 -11 -16 -25 -30 -30 -51 -34 -37 -7 7 14 6
19 -4 19 -8 0 -12 -4 -9 -8 8 -14 -15 -59 -31 -59 -8 0 -15 -3 -15 -7 -1 -16
-28 -44 -46 -48 -38 -8 -79 -23 -66 -24 6 -1 12 -6 12 -12 0 -6 -5 -9 -12 -7
-6 2 -21 -6 -34 -19 -12 -12 -35 -25 -51 -29 -27 -7 -53 -26 -53 -39 0 -3 6
-3 13 1 7 4 9 3 4 -2 -5 -5 -13 -9 -17 -9 -5 0 -16 -9 -24 -20 -9 -11 -16 -15
-16 -9 0 7 -11 9 -30 5 -38 -7 -39 -27 -2 -24 27 3 27 3 4 -7 -13 -6 -28 -8
-33 -4 -5 3 -9 0 -9 -7 0 -9 -3 -10 -11 -2 -6 6 -19 8 -30 6 -15 -4 -17 -8 -8
-19 11 -13 2 -19 -23 -15 -5 0 -8 -3 -8 -9 0 -6 -9 -6 -26 1 -23 8 -25 7 -16
-4 7 -8 8 -18 4 -22 -4 -5 -1 -5 6 -1 17 10 38 -4 21 -15 -8 -5 -20 -2 -31 8
-17 15 -18 15 -18 -2 0 -12 -4 -15 -12 -8 -7 6 -22 13 -33 16 -18 6 -17 5 3
-9 12 -9 22 -23 22 -31 0 -12 -3 -13 -14 -4 -16 14 -49 3 -43 -14 3 -6 -1 -12
-9 -12 -7 0 -11 3 -9 7 2 4 -2 7 -10 7 -8 0 -13 -2 -10 -5 2 -3 -2 -14 -10
-25 -10 -14 -11 -25 -4 -38 7 -15 6 -17 -6 -13 -8 4 -15 1 -15 -6 0 -9 -4 -9
-17 1 -15 12 -16 12 -10 -3 4 -10 2 -18 -4 -18 -6 0 -8 -7 -5 -16 5 -14 4 -15
-8 -5 -20 17 -56 4 -56 -20 0 -10 -5 -19 -11 -19 -5 0 -7 5 -3 11 4 8 0 8 -15
0 -17 -10 -19 -15 -11 -31 12 -23 7 -25 -23 -8 -19 10 -20 9 -10 -4 15 -18 5
-32 -13 -17 -9 8 -11 5 -7 -10 3 -11 14 -23 24 -26 11 -4 17 -11 13 -16 -3 -6
-12 -5 -22 3 -12 10 -14 10 -8 1 4 -8 1 -13 -8 -13 -9 0 -16 -7 -16 -16 0 -8
-4 -12 -10 -9 -6 3 -7 -1 -4 -9 3 -9 11 -13 18 -10 6 3 3 -1 -7 -9 -10 -9 -19
-19 -20 -24 -1 -4 -9 -8 -19 -7 -12 0 -14 -5 -9 -20 11 -28 3 -46 -16 -39 -10
4 -14 2 -10 -4 4 -6 1 -14 -5 -16 -8 -3 -6 -6 5 -6 10 -1 16 -5 12 -11 -3 -5
-13 -6 -22 -3 -11 4 -14 3 -9 -5 4 -7 2 -12 -6 -12 -10 0 -10 -2 1 -9 10 -7 5
-13 -23 -26 -20 -10 -36 -22 -36 -27 0 -6 12 -2 28 8 26 17 27 17 12 -1 -8
-11 -28 -32 -45 -48 -20 -19 -24 -27 -12 -23 11 3 16 2 12 -4 -3 -6 -12 -10
-20 -10 -8 0 -17 -5 -21 -12 -5 -8 -2 -9 11 -4 14 5 16 4 7 -7 -7 -8 -9 -16
-7 -19 3 -3 -6 -13 -20 -22 -23 -15 -24 -20 -13 -33 11 -14 11 -15 -2 -11 -15
5 -30 -14 -51 -64 -6 -16 -16 -28 -21 -28 -6 0 -5 -8 3 -17 7 -10 9 -15 5 -11
-5 4 -15 3 -23 -3 -10 -9 -11 -15 -1 -26 9 -12 9 -14 -3 -13 -33 5 -42 1 -30
-14 10 -12 8 -14 -11 -12 -13 2 -29 -3 -36 -11 -8 -8 -9 -13 -2 -13 5 0 10 -5
10 -11 0 -5 -4 -8 -9 -4 -6 3 -31 -15 -56 -40 -51 -49 -55 -51 -73 -33 -9 9
-12 9 -12 0 0 -7 4 -12 10 -12 5 0 7 -7 4 -15 -4 -10 -10 -12 -18 -6 -7 6 -16
3 -26 -7 -13 -14 -12 -15 3 -9 9 3 17 2 17 -3 0 -17 -21 -22 -36 -9 -14 11
-15 9 -11 -20 4 -22 2 -31 -6 -28 -7 2 -12 10 -12 17 0 7 -6 15 -14 18 -10 3
-12 0 -7 -13 5 -15 4 -16 -9 -5 -13 11 -15 8 -12 -28 3 -40 3 -40 -20 -25 -21
14 -23 14 -23 -1 0 -9 5 -16 10 -16 6 0 5 -8 -2 -20 -7 -11 -22 -20 -33 -20
-20 1 -20 1 -1 15 11 8 15 15 9 15 -6 0 -16 -6 -23 -14 -6 -8 -17 -14 -23 -12
-7 1 -2 -2 11 -8 26 -12 29 -31 6 -40 -15 -6 -15 -4 -3 11 7 10 -3 2 -24 -17
-36 -34 -51 -54 -23 -31 7 6 21 8 30 5 15 -6 14 -8 -5 -22 -22 -15 -22 -16 -3
-23 17 -7 17 -8 -3 -8 -23 -1 -50 -36 -35 -45 14 -8 35 11 27 25 -6 11 -5 11
4 3 10 -9 10 -16 -1 -33 -15 -25 -22 -26 -40 -8 -7 8 -21 14 -31 14 -9 0 -14
-3 -11 -6 3 -3 11 -6 17 -6 5 0 11 -10 12 -22 1 -19 -1 -21 -13 -10 -12 9 -16
9 -20 -1 -3 -10 -7 -10 -20 0 -12 9 -11 6 2 -10 11 -12 15 -22 11 -22 -4 0 0
-9 10 -20 10 -11 15 -23 12 -27 -4 -3 -7 -1 -7 5 0 7 -9 12 -21 12 -12 0 -17
4 -13 11 3 6 -5 3 -20 -6 -23 -15 -39 -34 -17 -21 5 3 11 -1 15 -9 3 -10 -1
-15 -12 -15 -9 0 -23 -4 -30 -9 -8 -5 8 -6 40 -4 51 4 52 4 28 -11 -14 -9 -33
-19 -42 -22 -10 -3 -16 -10 -13 -14 3 -4 -10 -10 -27 -14 -18 -3 -44 -18 -59
-32 -20 -19 -35 -25 -60 -22 -21 2 -33 8 -31 16 2 9 -3 10 -15 4 -20 -10 -93
-4 -93 8 0 4 -11 5 -25 2 -14 -2 -36 3 -51 13 -15 9 -43 17 -63 18 -20 1 -42
7 -50 14 -7 8 -22 11 -33 7 -14 -4 -18 -2 -14 5 4 7 0 11 -11 11 -11 0 -24 5
-30 11 -6 6 -26 14 -44 19 -19 4 -41 9 -49 11 -8 2 -18 8 -21 12 -3 4 -15 9
-27 10 -11 0 -18 5 -16 9 3 4 -5 8 -18 8 -14 0 -33 7 -44 16 -18 14 -18 15 5
4 17 -9 26 -9 34 -1 12 12 -8 15 -96 13 -26 0 -45 3 -43 7 3 4 -8 7 -24 6 -17
-1 -30 3 -30 8 0 5 -11 7 -25 5 -15 -3 -33 2 -45 12 -12 10 -29 16 -40 13 -12
-3 -22 1 -26 11 -4 11 -11 13 -22 7 -10 -6 -30 -2 -56 10 -23 10 -51 19 -63
19 -13 0 -23 5 -23 10 0 6 -12 8 -26 6 -17 -3 -41 5 -73 25 -51 31 -78 39 -45
14 12 -10 4 -8 -22 4 -23 11 -44 17 -48 14 -3 -4 -6 -1 -6 5 0 7 -5 12 -12 12
-6 0 -20 8 -31 18 -11 9 -17 11 -13 5 4 -7 3 -13 -2 -13 -10 0 -33 24 -29 31
1 2 -3 -2 -9 -9 -9 -10 -18 -7 -43 14 -17 14 -31 32 -31 39 0 8 -8 19 -17 24
-10 6 -13 11 -6 11 6 0 9 9 5 22 -4 16 -2 19 9 14 8 -4 5 -1 -5 8 -10 8 -24
13 -30 9 -6 -3 -8 -3 -4 2 4 4 2 17 -4 29 -19 36 -33 227 -18 255 5 9 13 43
19 75 6 33 14 62 19 65 4 3 7 15 7 26 -1 11 3 23 8 26 4 3 9 16 10 27 1 12 5
22 9 22 4 0 7 3 7 8 -1 4 0 9 1 12 4 11 11 47 15 83 2 21 8 43 12 50 4 7 8 17
9 22 2 6 10 48 19 95 9 47 23 117 31 155 8 39 16 91 18 118 2 26 6 50 9 53 3
3 3 12 1 19 -3 7 0 23 6 34 14 27 4 47 -16 30 -8 -6 -14 -9 -14 -5 0 10 190
158 323 252 272 193 466 371 585 536 35 49 67 88 72 88 4 0 11 19 15 43 13 75
60 149 128 198 l40 29 -35 0 c-55 0 -204 -47 -289 -91 -188 -98 -386 -265
-590 -498 -67 -78 -127 -141 -131 -141 -5 0 -6 55 -2 123 14 277 19 409 13
413 -3 2 -7 61 -8 131 -4 314 -34 720 -65 899 -8 44 -33 154 -55 245 -69 283
-107 492 -165 914 l-24 169 29 101 c49 176 118 367 171 474 39 80 68 122 121
178 80 84 141 122 247 153 68 20 81 21 140 11 178 -33 313 -94 618 -279 309
-188 552 -304 902 -432 296 -108 383 -135 645 -200 268 -66 456 -101 675 -124
306 -32 479 -85 585 -177 l35 -31 0 25 c0 53 -41 515 -56 625 -41 319 -128
558 -286 790 -125 183 -241 296 -438 427 -362 241 -748 354 -1348 395 -182 12
-4122 11 -4307 -1z m1482 -145 c-3 -3 -12 -4 -19 -1 -8 3 -5 6 6 6 11 1 17 -2
13 -5z m-520 -36 c-18 -11 -29 2 -16 18 10 12 14 12 20 2 4 -7 3 -16 -4 -20z
m503 1 c3 -1 14 -2 25 -3 11 -1 20 -8 20 -16 0 -8 9 -16 20 -18 30 -6 43 -22
18 -22 -12 0 -25 5 -28 10 -4 6 -11 7 -17 4 -6 -4 -8 -2 -4 4 7 12 -29 27 -43
17 -6 -3 -15 3 -20 14 -9 16 -8 19 7 16 9 -2 19 -4 22 -6z m2091 -32 c-13 -13
-26 -3 -16 12 3 6 11 8 17 5 6 -4 6 -10 -1 -17z m31 -15 c-9 -7 -11 -11 -4 -7
6 3 19 -1 28 -9 14 -15 14 -16 -2 -16 -16 0 -16 -1 2 -14 19 -14 19 -15 -1
-22 -11 -4 -23 -11 -26 -16 -8 -13 -39 2 -39 19 0 8 4 12 9 8 6 -3 8 3 6 13
-1 10 4 33 11 52 12 26 17 31 24 20 6 -9 3 -18 -8 -28z m-1346 -10 c14 -8 11
-50 -5 -80 -13 -24 -12 -71 2 -89 6 -9 5 -13 -2 -13 -7 0 -10 -4 -7 -9 7 -11
-18 -21 -54 -21 -51 0 -48 31 5 45 26 6 27 8 11 14 -14 5 -16 10 -8 15 17 10
15 23 -8 46 -27 27 -33 77 -11 90 19 11 62 13 77 2z m-1241 -32 c3 -5 1 -10
-4 -10 -6 0 -11 5 -11 10 0 6 2 10 4 10 3 0 8 -4 11 -10z m459 -15 c-4 -8 -8
-15 -10 -15 -2 0 -4 7 -4 15 0 8 4 15 10 15 5 0 7 -7 4 -15z m83 0 c8 -23 -1
-27 -31 -14 -19 9 -23 15 -14 21 20 12 38 9 45 -7z m1460 -60 c-1 -5 -15 -9
-32 -8 -16 1 -24 0 -17 -3 23 -11 12 -24 -20 -25 l-33 0 40 -15 c22 -8 52 -13
68 -11 41 5 34 -20 -10 -32 -30 -9 -40 -7 -64 10 -16 11 -34 17 -40 13 -8 -4
-9 -3 -5 4 4 7 3 12 -3 12 -5 0 -12 -6 -14 -12 -4 -9 -6 -10 -6 -1 -1 6 6 19
15 28 15 14 14 15 -10 11 -14 -3 -26 -1 -26 4 0 5 -9 12 -20 15 -38 12 -8 28
44 22 28 -2 60 -1 71 3 24 9 65 -1 62 -15z m1582 -8 c-2 -18 0 -38 5 -45 4 -6
3 -12 -1 -12 -5 0 -7 -18 -5 -40 4 -36 2 -39 -14 -34 -11 4 -25 14 -31 22 -9
11 -13 12 -13 3 0 -7 -5 -9 -10 -6 -6 4 -1 14 12 26 21 17 21 19 3 14 -16 -5
-16 -4 2 6 16 9 22 19 19 35 -3 14 0 24 7 25 9 0 9 2 0 5 -16 7 -5 34 14 34
10 0 14 -9 12 -33z m-5194 6 c15 -35 12 -62 -7 -69 -28 -8 -15 -29 16 -26 18
2 26 -2 26 -13 0 -14 -11 -19 -37 -16 -6 1 -15 -4 -19 -10 -4 -8 -3 -9 4 -5 7
4 12 2 12 -5 0 -7 -8 -9 -21 -6 -15 4 -19 2 -15 -9 3 -9 -1 -14 -13 -14 -11 0
-27 -3 -37 -7 -12 -4 -15 -3 -10 5 7 11 -6 17 -29 12 -5 -1 -5 4 2 11 6 6 24
13 39 15 15 1 33 9 41 17 12 12 10 13 -17 9 -32 -4 -63 13 -57 32 4 11 8 13
53 15 14 0 22 5 19 11 -4 6 5 10 19 10 27 0 34 14 15 26 -6 3 -14 2 -18 -3 -7
-11 -41 -13 -41 -3 0 10 42 39 56 39 7 1 15 -7 19 -16z m2190 -3 c0 -11 -13
-15 -46 -16 -59 -1 -77 -11 -52 -29 12 -9 20 -10 24 -3 4 6 15 2 28 -11 24
-24 28 -46 7 -38 -8 3 -22 -1 -33 -8 -10 -9 -13 -14 -5 -15 6 0 12 -7 12 -15
0 -8 6 -12 13 -10 29 10 67 13 67 5 0 -5 -13 -17 -30 -27 -40 -23 -38 -33 8
-33 28 0 39 -4 39 -15 0 -8 -7 -14 -15 -13 -8 2 -17 -4 -19 -12 -4 -13 -3 -13
7 0 10 13 11 13 7 0 -5 -18 -75 -24 -94 -8 -19 16 -16 39 7 45 19 5 28 22 13
24 -27 2 -46 9 -59 20 -13 10 -12 15 7 32 l21 20 -22 17 c-14 11 -18 19 -11
21 9 3 8 12 -3 34 -21 41 -8 51 66 50 48 -1 63 -4 63 -15z m2012 0 c-1 -21
-15 -24 -54 -14 -37 10 -26 29 16 32 35 2 40 0 38 -18z m433 0 c0 -5 -5 -10
-11 -10 -5 0 -7 5 -4 10 3 6 8 10 11 10 2 0 4 -4 4 -10z m-3076 -9 c3 -5 -1
-11 -9 -15 -9 -3 -15 0 -15 9 0 16 16 20 24 6z m-1647 -17 c-3 -3 -12 -4 -19
-1 -8 3 -5 6 6 6 11 1 17 -2 13 -5z m3443 -14 c0 -5 -4 -10 -10 -10 -5 0 -10
5 -10 10 0 6 5 10 10 10 6 0 10 -4 10 -10z m824 -1 c-5 -8 -1 -8 14 0 21 11
21 12 13 -49 -1 -3 -12 -6 -26 -6 -21 -2 -24 1 -14 12 9 11 7 14 -10 14 -23 0
-29 25 -8 33 22 9 38 7 31 -4z m-779 -9 c3 -6 -4 -10 -17 -10 -18 0 -20 2 -8
10 19 12 18 12 25 0z m-2827 -7 c-10 -2 -18 -9 -18 -14 0 -5 -4 -9 -10 -9 -5
0 -10 7 -10 15 0 10 9 15 28 14 16 -1 20 -3 10 -6z m1010 -19 c6 3 8 -2 5 -14
-3 -11 -10 -20 -15 -20 -5 0 -7 -4 -3 -9 3 -5 1 -12 -5 -16 -5 -3 -7 -17 -4
-31 4 -16 2 -24 -7 -24 -7 0 -9 3 -6 6 3 4 2 14 -3 24 -5 9 -10 33 -12 53 -1
20 -5 34 -9 31 -4 -2 -10 0 -13 5 -10 16 38 18 51 3 6 -8 16 -11 21 -8z m1873
9 c13 -17 13 -17 -6 -3 -11 8 -22 16 -24 17 -2 2 0 3 6 3 6 0 17 -8 24 -17z
m-2864 -54 c-1 -17 -7 -20 -41 -17 -52 5 -59 26 -9 31 21 2 41 4 45 5 4 1 6
-7 5 -19z m2840 -3 c23 0 39 -4 37 -8 -6 -10 -95 -11 -119 -2 -13 5 -14 8 -3
15 7 5 20 6 28 2 8 -3 34 -6 57 -7z m761 -6 c7 -12 18 -18 24 -14 7 4 8 3 4
-5 -6 -9 -14 -8 -32 3 -30 20 -40 20 -24 1 7 -8 10 -21 7 -29 -3 -8 1 -20 9
-27 12 -10 12 -14 2 -21 -9 -6 -5 -7 10 -3 18 5 22 2 22 -14 0 -22 -14 -28
-25 -11 -4 6 -10 8 -14 5 -5 -2 -17 2 -27 10 -15 11 -16 15 -4 15 12 0 11 3
-2 11 -10 5 -18 15 -18 20 0 6 4 8 9 4 15 -9 23 13 12 32 -7 13 -5 21 7 30 23
17 25 16 40 -7z m-1348 -32 c0 -10 -5 -27 -12 -37 -9 -15 -17 -17 -39 -11 -16
5 -36 17 -46 27 -10 10 -16 17 -14 16 2 -1 12 8 22 21 17 22 22 23 54 13 23
-7 35 -16 35 -29z m714 16 c3 -8 2 -12 -4 -9 -6 3 -10 10 -10 16 0 14 7 11 14
-7z m91 -14 c-12 -13 -31 -20 -56 -20 -21 0 -41 -4 -44 -10 -3 -6 -50 -10
-106 -10 -93 0 -99 1 -84 16 13 13 40 17 128 19 62 1 123 7 137 13 38 16 45
14 25 -8z m1517 -10 c-2 -8 3 -10 13 -6 31 11 36 -5 10 -35 -20 -24 -23 -34
-15 -50 9 -16 7 -19 -12 -20 -23 0 -23 0 2 -11 14 -6 28 -11 31 -10 3 1 6 -12
5 -28 -1 -29 -3 -30 -36 -24 -48 9 -68 29 -53 53 10 15 9 20 -2 25 -8 3 -15
10 -15 16 0 6 5 8 10 5 6 -3 10 -1 10 4 0 6 9 11 20 11 27 0 25 18 -2 22 -19
2 -22 8 -19 33 1 17 5 33 7 37 7 12 49 -9 46 -22z m-5122 6 c0 -7 -10 -16 -21
-19 -15 -4 -20 -11 -16 -21 7 -17 -8 -22 -18 -6 -3 6 -12 10 -18 10 -7 0 -6
-4 3 -10 21 -13 6 -23 -38 -26 -20 -1 -31 0 -24 3 6 2 10 8 7 13 -3 5 8 14 25
22 16 7 30 16 30 20 0 5 9 8 20 8 11 0 20 5 20 10 0 6 7 10 15 10 8 0 15 -6
15 -14z m1550 -16 c0 -5 -4 -10 -10 -10 -5 0 -10 5 -10 10 0 6 5 10 10 10 6 0
10 -4 10 -10z m-1030 -30 c0 -20 -25 -50 -41 -50 -6 0 -5 9 1 21 7 11 9 23 6
26 -9 9 15 34 25 27 5 -3 9 -14 9 -24z m5225 20 c11 -17 -5 -31 -19 -17 -14
12 -12 27 4 27 5 0 12 -4 15 -10z m-5862 -7 c-7 -2 -19 -2 -25 0 -7 3 -2 5 12
5 14 0 19 -2 13 -5z m694 -19 c0 -6 -11 -9 -24 -6 -30 6 -30 20 0 18 13 0 24
-6 24 -12z m2161 -26 c-8 -5 -3 -6 13 -3 19 5 28 2 33 -10 4 -11 2 -14 -6 -9
-6 4 -4 -3 5 -16 19 -27 13 -70 -12 -84 -14 -8 -12 -11 9 -17 l25 -6 -27 -11
c-20 -8 -28 -19 -28 -36 0 -17 8 -27 28 -34 24 -9 25 -10 5 -11 -24 -1 -31
-25 -12 -37 18 -11 -7 -27 -31 -19 -17 5 -19 10 -9 21 9 11 8 14 -2 14 -8 0
-20 4 -28 9 -12 8 -12 12 -2 25 7 9 11 22 7 31 -3 9 4 20 22 29 l27 15 -32 1
c-48 0 -41 30 12 50 l30 12 -24 9 c-17 7 -27 6 -32 -2 -3 -6 -12 -10 -19 -7
-8 2 -5 12 9 30 18 22 19 27 6 38 -8 7 -12 17 -9 22 4 6 10 5 15 -3 7 -12 9
-11 10 1 1 8 1 19 0 24 -1 5 5 3 14 -4 13 -11 13 -15 3 -22z m-2744 3 c-5 -3
-9 -15 -9 -26 0 -33 -24 -55 -51 -45 -14 6 -26 5 -29 0 -7 -11 27 -30 54 -30
11 0 25 -9 31 -19 9 -18 5 -19 -49 -23 -33 -1 -57 0 -55 3 2 4 -3 12 -11 19
-19 16 -19 30 0 30 8 0 15 7 15 16 0 14 -2 14 -16 3 -14 -11 -18 -10 -30 6 -8
10 -14 24 -14 29 0 8 3 8 8 1 8 -13 22 -13 41 -1 10 6 16 5 19 -2 2 -7 8 -9
14 -6 6 4 13 1 17 -5 4 -6 15 -9 23 -6 18 7 32 45 17 45 -6 0 -4 6 3 14 7 8
17 12 22 9 4 -3 4 -8 0 -12z m3556 5 c0 -21 -25 -37 -45 -29 -14 5 -16 3 -10
-8 8 -12 6 -12 -8 0 -14 11 -17 11 -17 -1 0 -9 -10 -13 -27 -12 -16 1 -43 3
-61 3 -30 1 -32 3 -22 21 8 15 15 18 28 11 9 -4 28 -7 42 -6 14 2 34 4 45 5
11 1 14 4 7 7 -22 9 -2 23 34 23 22 0 34 -5 34 -14z m-3600 -31 c7 -8 9 -15 6
-15 -4 0 -14 7 -22 15 -9 8 -11 15 -6 15 5 0 15 -7 22 -15z m1563 -5 c-3 -11
-9 -17 -14 -14 -14 8 -10 34 5 34 9 0 12 -7 9 -20z m44 14 c-3 -3 -12 -4 -19
-1 -8 3 -5 6 6 6 11 1 17 -2 13 -5z m-1007 -39 c-4 -21 -12 -30 -25 -30 -13 0
-19 -6 -17 -18 6 -38 -14 -14 -24 28 -11 48 -8 52 47 51 23 -1 25 -4 19 -31z
m3605 5 c11 -5 14 -9 8 -9 -9 -1 -10 -8 -3 -26 9 -23 8 -24 -23 -18 -60 11
-65 56 -7 61 3 0 14 -3 25 -8z m-585 -24 c0 -3 -4 -8 -10 -11 -5 -3 -10 -1
-10 4 0 6 5 11 10 11 6 0 10 -2 10 -4z m-35 -16 c9 -15 -82 -39 -117 -31 -19
5 -43 5 -54 1 -24 -9 -74 -1 -74 11 0 5 13 6 30 3 22 -5 31 -2 36 9 4 13 23
16 90 15 46 0 86 -4 89 -8z m2225 -18 c0 -5 -6 -16 -13 -27 -13 -17 -14 -17
-20 4 -3 11 -1 19 3 16 5 -3 11 -1 15 5 7 12 15 13 15 2z m-3497 -26 c114 -29
162 -60 257 -164 68 -74 138 -205 164 -308 20 -76 20 -70 -4 -70 -11 0 -20 4
-20 8 0 4 8 8 18 8 15 1 15 2 -2 12 -15 8 -21 7 -28 -6 -5 -9 -14 -14 -19 -10
-6 4 -5 12 2 22 11 14 10 14 -6 0 -15 -14 -16 -20 -7 -30 15 -15 16 -48 2 -48
-6 0 -9 5 -8 11 2 6 -2 13 -7 15 -6 2 -11 -5 -11 -16 0 -11 4 -20 8 -20 4 0 8
-7 8 -15 0 -8 -7 -15 -16 -15 -9 0 -12 5 -8 12 4 7 3 8 -5 4 -14 -9 -5 -26 15
-26 8 0 12 -5 9 -10 -4 -6 -10 -8 -14 -6 -4 3 -5 -9 -3 -26 4 -26 2 -29 -14
-24 -29 9 -68 -52 -55 -87 8 -20 7 -30 -5 -42 -9 -8 -20 -15 -25 -15 -6 0 -7
-4 -4 -10 3 -5 1 -10 -4 -10 -6 0 -11 -14 -11 -31 0 -22 4 -28 13 -22 18 11
37 12 37 2 0 -5 -7 -9 -15 -9 -14 0 -19 -11 -16 -37 1 -7 -3 -13 -10 -13 -6 0
-9 -7 -5 -15 3 -9 0 -15 -8 -15 -9 0 -12 9 -9 28 4 26 4 26 -11 8 -9 -11 -16
-24 -16 -29 0 -5 -11 -7 -25 -5 -18 4 -26 0 -30 -13 -8 -25 -34 -12 -31 16 3
20 0 22 -24 15 -22 -6 -33 -3 -55 16 -31 27 -39 30 -30 12 4 -7 -2 -3 -12 8
-11 12 -34 25 -51 29 -18 3 -30 11 -27 16 4 5 0 6 -7 4 -8 -3 -35 1 -60 9
-102 30 -299 -6 -437 -81 -68 -36 -134 -83 -128 -90 2 -2 32 10 66 27 241 120
518 81 724 -100 40 -36 47 -47 42 -67 -4 -18 -2 -23 6 -17 7 4 9 3 5 -4 -3 -6
-22 -8 -42 -6 -19 2 -45 -1 -56 -7 -12 -7 -23 -8 -25 -3 -2 5 -81 6 -185 3
-153 -5 -198 -11 -273 -32 -291 -82 -530 -207 -690 -359 -111 -105 -153 -208
-148 -362 6 -175 167 -1056 194 -1056 4 0 5 -9 2 -20 -3 -13 1 -22 12 -26 13
-5 14 -9 3 -15 -11 -7 -10 -11 2 -19 11 -7 17 -5 21 7 4 13 7 14 14 4 8 -14
-13 -33 -27 -25 -4 3 -8 1 -8 -4 0 -11 24 -22 46 -22 9 0 13 4 9 9 -3 5 -1 12
5 16 5 3 10 14 10 25 0 13 6 17 23 14 12 -2 17 -2 10 2 -8 4 -9 13 -3 29 5 12
6 26 2 30 -3 3 2 3 12 -1 25 -9 40 16 19 31 -14 11 -14 14 6 34 24 24 21 61
-5 61 -17 0 -18 12 -2 28 7 7 8 12 2 12 -11 0 -12 6 -15 56 -1 17 -6 23 -15
20 -17 -7 -18 16 -2 32 7 7 8 12 2 12 -12 0 -11 71 1 91 6 11 5 12 -6 2 -18
-18 -34 -16 -19 2 11 13 8 15 -16 16 l-29 2 27 4 c25 4 27 7 17 24 -7 15 -7
24 2 35 9 11 8 14 -5 14 -15 0 -16 7 -12 45 2 25 1 45 -4 45 -12 0 -3 194 9
198 6 2 11 8 11 13 0 6 -6 7 -12 3 -7 -4 -2 5 11 19 14 15 25 41 27 62 1 21
11 43 21 52 10 8 12 12 6 8 -21 -10 -15 9 8 28 11 10 18 25 15 32 -3 8 -1 17
5 20 5 4 20 28 34 55 26 51 123 160 143 160 7 0 12 -8 12 -17 0 -9 -3 -14 -6
-10 -8 8 -91 -89 -114 -133 -98 -192 27 -403 261 -441 200 -32 500 114 726
354 80 84 80 116 4 158 l-36 20 32 -6 c42 -8 104 -41 95 -50 -4 -4 4 -2 18 5
18 10 25 10 28 1 3 -9 8 -9 20 1 14 11 15 10 9 -7 -6 -16 -3 -15 13 5 11 14
20 29 20 33 0 5 4 6 9 3 5 -3 7 -16 4 -29 -5 -18 -3 -20 8 -9 18 17 32 15 25
-4 -3 -8 -2 -12 4 -9 6 3 10 12 10 20 0 19 29 47 41 39 5 -3 7 -14 4 -24 -3
-10 0 -22 6 -26 7 -4 9 -3 6 3 -4 6 3 11 17 11 19 0 22 -5 18 -22 l-5 -21 23
20 23 20 -11 -22 c-12 -22 -2 -27 24 -10 12 7 24 -21 24 -60 0 -13 4 -23 9
-23 5 0 8 14 6 30 -3 18 0 28 5 25 6 -4 10 -14 10 -24 0 -22 53 -74 65 -64 5
5 3 0 -4 -9 -14 -19 -7 -38 15 -38 8 0 14 -8 13 -17 0 -11 -3 -13 -6 -5 -2 6
-9 12 -15 12 -7 0 -7 -5 1 -13 6 -8 8 -17 4 -21 -4 -4 -1 -5 7 -1 21 8 47 -34
28 -46 -11 -7 -11 -9 1 -9 10 0 11 -3 3 -13 -8 -9 -8 -20 2 -38 13 -26 10 -49
-8 -61 -15 -10 -16 -50 -1 -44 15 5 13 -19 -5 -59 -12 -29 -14 -37 -18 -95 -2
-26 -52 -93 -52 -70 0 11 -3 11 -12 2 -10 -10 -10 -15 2 -22 11 -7 12 -10 2
-10 -8 0 -12 -9 -10 -22 2 -15 -5 -30 -19 -41 -13 -10 -23 -24 -23 -30 0 -7 7
-3 15 7 8 11 15 15 15 9 0 -7 -7 -19 -16 -27 -8 -9 -11 -16 -5 -16 6 0 8 -7 4
-16 -3 -8 -12 -13 -19 -10 -8 3 -11 0 -7 -10 3 -7 1 -14 -5 -14 -11 0 -28 -56
-23 -77 1 -7 -3 -13 -9 -13 -6 0 -8 -4 -5 -10 3 -5 -3 -10 -14 -10 -12 0 -21
-4 -21 -10 0 -5 5 -10 10 -10 6 0 10 -4 10 -10 0 -5 -7 -10 -16 -10 -8 0 -12
-4 -9 -10 3 -6 -1 -7 -9 -4 -11 4 -16 0 -16 -10 0 -9 5 -16 11 -16 7 0 0 -12
-14 -26 -15 -14 -29 -34 -32 -45 -4 -12 -12 -16 -22 -12 -13 5 -15 2 -10 -11
4 -10 -1 -29 -11 -44 -9 -14 -12 -23 -5 -19 6 4 14 3 18 -3 3 -5 0 -10 -8 -10
-13 0 -31 -33 -28 -52 0 -3 -6 -9 -15 -12 -9 -4 -12 -2 -8 5 4 8 0 7 -15 0
-11 -7 -21 -16 -21 -22 0 -6 5 -7 12 -3 7 5 8 3 3 -6 -6 -10 -4 -12 9 -7 11 4
15 3 11 -4 -4 -6 -13 -8 -21 -5 -15 6 -60 -32 -50 -42 3 -3 -1 -14 -11 -24 -9
-11 -11 -18 -5 -18 7 0 12 -4 12 -10 0 -5 -3 -9 -8 -7 -4 1 -8 -1 -9 -6 -2 -4
-10 -21 -18 -37 l-16 -31 28 5 28 6 -27 -12 c-16 -7 -28 -15 -28 -20 0 -4 -7
-8 -15 -8 -8 0 -14 -3 -13 -7 2 -5 -16 -32 -40 -61 -38 -49 -48 -55 -42 -27 1
6 -1 7 -5 3 -4 -4 -44 25 -88 64 -107 92 -217 169 -314 218 -80 42 -218 90
-255 90 -18 0 -15 -6 19 -43 35 -38 39 -47 35 -82 -4 -32 -6 -36 -13 -20 -7
19 -9 17 -13 -17 -1 -7 -6 -12 -11 -12 -6 1 -23 -11 -38 -27 -16 -16 -25 -29
-21 -29 10 0 -38 -36 -61 -44 -11 -4 -31 -10 -45 -12 -14 -3 -27 -9 -28 -15
-2 -5 -8 -7 -13 -4 -5 3 -19 0 -31 -6 -26 -14 -98 -18 -98 -6 0 20 -65 -33
-94 -76 -35 -53 -74 -71 -161 -71 -41 -1 -60 6 -108 37 -59 38 -77 44 -77 27
0 -5 -16 -10 -35 -10 -19 0 -35 -4 -35 -9 0 -13 -40 -24 -77 -22 -18 1 -33 -3
-33 -8 0 -5 -9 -7 -20 -4 -11 3 -20 1 -20 -5 0 -17 -73 -11 -107 8 -18 11 -33
15 -33 10 0 -6 -7 -10 -15 -10 -9 0 -12 -6 -8 -17 5 -15 4 -16 -8 -5 -10 9
-13 33 -12 78 2 45 0 63 -8 58 -6 -3 -38 -43 -71 -87 -71 -96 -162 -280 -213
-427 -20 -58 -40 -109 -44 -113 -4 -4 -14 -1 -21 8 -7 8 -17 15 -23 15 -6 0
-1 -7 11 -16 26 -18 29 -34 6 -34 -8 0 -13 4 -9 9 3 5 -4 12 -15 16 -11 4 -18
11 -14 16 8 13 -45 62 -61 55 -7 -2 -29 6 -48 20 -20 13 -43 24 -52 24 -9 0
-13 5 -10 10 3 6 -3 10 -14 10 -10 0 -27 3 -37 7 -13 5 -15 3 -9 -8 8 -12 6
-12 -8 0 -11 9 -15 21 -11 34 4 12 1 23 -7 28 -20 13 -29 11 -29 -6 0 -8 -5
-15 -11 -15 -5 0 -7 4 -4 10 3 6 1 10 -6 10 -7 0 -4 7 7 15 19 14 19 14 -3 15
-12 0 -23 -5 -25 -12 -3 -7 -10 -8 -17 -4 -10 7 -10 10 -1 16 19 12 -18 42
-43 34 -16 -5 -19 -3 -13 11 4 12 2 16 -8 12 -16 -6 -51 27 -43 40 3 5 -1 17
-9 27 -10 15 -16 16 -27 8 -17 -14 -27 -6 -20 16 4 15 3 15 -6 2 -10 -13 -12
-13 -21 0 -6 8 -8 23 -6 33 2 9 0 14 -6 11 -5 -3 -18 2 -28 11 -13 11 -28 15
-43 11 -17 -4 -30 0 -42 14 -14 16 -20 17 -27 8 -5 -9 -8 -7 -8 8 0 25 -26 62
-36 51 -5 -4 -3 -17 4 -27 16 -26 15 -35 -1 -21 -8 6 -16 8 -19 5 -3 -2 -13
14 -22 37 -12 29 -21 39 -32 35 -9 -4 -19 3 -26 19 -7 17 -14 21 -19 14 -4 -8
-9 -4 -13 9 -4 12 -16 24 -26 27 -13 4 -17 12 -13 23 6 14 4 15 -9 4 -13 -10
-17 -10 -23 5 -7 17 -8 17 -15 -2 -8 -19 -9 -19 -9 -1 -1 10 7 25 17 32 16 13
16 13 -3 14 -19 0 -53 50 -34 50 5 0 9 -4 9 -10 0 -5 5 -10 10 -10 18 0 10 22
-10 27 -15 4 -19 13 -18 48 0 24 -3 49 -8 56 -5 8 -10 22 -11 33 -3 16 -1 17
13 5 15 -12 16 -10 10 28 -5 24 -3 43 2 47 6 3 8 15 5 26 -4 15 0 20 16 20 16
0 20 6 18 23 -1 17 3 22 20 21 17 0 20 3 13 16 -6 12 -4 23 6 36 9 11 13 14
10 8 -3 -6 6 -16 20 -23 38 -17 49 -13 29 9 -20 22 -10 25 29 10 31 -11 33 -7
6 18 -20 19 -20 19 2 18 13 -1 30 -7 38 -15 10 -9 15 -10 18 -2 2 6 10 11 18
11 8 0 14 8 14 17 0 13 3 14 12 5 13 -13 29 -16 27 -4 -3 19 2 25 11 12 6 -10
10 -11 10 -2 0 6 7 12 15 12 8 0 15 -4 15 -10 0 -5 8 -6 17 -3 11 4 12 8 5 11
-7 2 -12 8 -12 13 0 6 8 6 19 -1 17 -9 19 -7 16 10 -3 13 2 20 12 20 8 0 13
-6 10 -13 -3 -8 1 -14 8 -14 7 0 12 7 11 16 -1 11 7 16 27 16 15 -1 27 3 27 7
0 4 -7 8 -16 8 -8 0 -12 5 -9 10 3 6 1 10 -5 10 -17 0 -170 78 -206 106 -32
24 -47 63 -33 86 9 14 8 14 29 -27 20 -40 169 -115 288 -145 376 -95 706 50
750 331 8 53 -3 140 -24 193 -7 19 -7 19 18 0 15 -11 23 -25 20 -33 -3 -8 -1
-12 5 -8 6 4 18 -9 29 -28 10 -18 21 -32 26 -29 4 3 5 -2 2 -10 -7 -17 33 -66
54 -66 6 0 12 -5 12 -10 0 -6 -11 -8 -25 -4 -21 5 -24 3 -19 -10 3 -9 11 -16
18 -15 27 3 34 -2 28 -23 -5 -19 -3 -21 9 -11 12 10 17 8 27 -8 9 -13 9 -18 1
-17 -6 2 -13 -2 -16 -9 -3 -8 4 -9 19 -5 21 5 22 4 9 -11 -7 -9 -10 -17 -5
-17 5 0 10 -12 11 -27 0 -15 6 -29 12 -31 6 -2 11 -19 11 -37 0 -19 8 -41 18
-51 16 -17 16 -17 -7 -11 l-24 6 26 -27 c14 -15 27 -36 29 -47 2 -11 11 -19
19 -17 11 2 10 0 -2 -10 -9 -7 -15 -24 -14 -38 1 -14 -3 -28 -9 -33 -7 -5 -5
-12 6 -21 10 -7 14 -17 10 -21 -4 -5 1 -6 10 -2 10 3 19 0 22 -9 4 -9 2 -12
-5 -8 -8 4 -9 -1 -4 -16 l7 -23 -23 22 c-29 27 -43 27 -27 1 12 -19 27 -24 54
-21 7 1 14 -5 17 -13 4 -9 1 -13 -6 -11 -7 3 -18 1 -25 -4 -10 -6 -9 -15 8
-44 12 -21 26 -37 32 -37 5 0 6 4 3 10 -3 6 1 7 9 4 11 -4 14 -14 10 -30 -5
-20 -3 -23 10 -18 14 5 16 1 11 -26 -5 -30 -4 -31 11 -16 9 9 14 23 11 30 -3
8 1 22 9 33 14 17 15 17 5 -3 -7 -15 -7 -24 2 -33 9 -9 9 -14 -2 -20 -7 -5
-11 -13 -7 -19 8 -14 66 -33 66 -22 0 5 -9 12 -20 15 -14 4 -20 15 -20 36 0
25 2 28 14 17 8 -7 12 -16 9 -20 -2 -4 3 -5 11 -2 9 3 16 10 16 16 0 5 -4 6
-10 3 -5 -3 -10 -1 -10 4 0 17 18 13 30 -6 9 -14 10 5 6 77 -3 52 -7 109 -10
125 -2 17 -13 86 -24 155 -11 69 -23 148 -27 175 -21 161 -137 554 -196 664
-29 54 -110 148 -141 163 -16 7 -28 15 -28 19 0 10 -123 68 -190 89 -107 34
-194 43 -370 37 -166 -5 -240 -17 -410 -68 -73 -22 -75 -22 -185 -75 -44 -20
-82 -38 -85 -38 -3 0 -13 -7 -23 -16 -9 -8 -30 -18 -45 -21 -15 -3 -26 -10
-25 -16 1 -6 -5 -10 -15 -8 -9 1 -20 -3 -24 -9 -4 -6 -14 -2 -28 14 -11 13
-17 26 -13 29 5 3 9 13 11 21 6 29 55 116 95 168 112 147 270 240 453 268 38
5 44 9 29 15 -30 11 -153 11 -221 -2 -90 -16 -224 -59 -224 -71 0 -6 -3 -9 -6
-6 -6 7 -134 -113 -134 -125 0 -7 -23 -38 -52 -68 -9 -9 -19 -27 -23 -39 -7
-22 -7 -22 -26 -3 -10 10 -20 30 -21 45 -1 15 -5 26 -8 26 -18 -2 -23 4 -10
12 11 8 8 9 -13 4 -23 -5 -26 -4 -21 11 6 14 3 16 -14 10 -14 -4 -22 -2 -22 5
0 6 6 8 13 5 6 -4 5 -1 -4 7 -17 14 -19 19 -19 44 0 9 -9 18 -21 21 -12 4 -18
11 -15 20 10 24 -16 53 -41 47 -14 -4 -23 -2 -23 6 0 6 5 8 10 5 6 -3 10 -2
10 2 0 5 -9 14 -20 21 -11 7 -20 19 -20 28 0 14 3 14 15 4 9 -7 18 -10 21 -7
3 3 -3 12 -15 19 -12 7 -21 21 -21 31 0 10 -5 15 -10 12 -6 -4 -10 7 -10 24 0
17 -4 31 -10 31 -14 0 -12 -20 5 -54 8 -15 15 -36 14 -45 0 -13 -2 -14 -6 -1
-3 8 -9 17 -13 20 -3 3 -14 23 -24 45 -13 27 -15 40 -7 43 6 2 8 8 5 14 -4 6
2 8 17 4 20 -6 21 -5 6 4 -9 6 -22 8 -27 5 -14 -9 -52 4 -45 15 3 5 12 7 20 3
8 -3 15 0 15 6 0 6 -7 11 -16 11 -8 0 -13 4 -9 9 6 11 -23 43 -34 36 -5 -2
-13 7 -19 20 -13 29 -5 33 13 8 11 -14 12 -11 9 21 -4 28 -1 36 8 31 7 -4 4 0
-6 9 -16 13 -17 18 -6 31 10 12 10 15 -3 15 -8 0 -18 -6 -20 -12 -4 -8 -6 -6
-7 5 -2 9 -3 21 -4 26 0 5 -5 13 -10 18 -5 5 -6 -5 -3 -22 5 -26 2 -31 -14
-31 -23 0 -24 -4 3 54 24 51 149 183 213 225 56 36 224 92 325 107 54 8 90 19
97 29 9 11 12 12 13 3 0 -10 24 -12 113 -7 201 11 319 25 522 65 110 21 261
50 335 64 75 15 198 45 275 67 77 22 201 56 275 74 74 19 158 43 185 53 28 11
136 48 240 81 105 34 215 72 245 86 143 64 505 200 589 221 52 13 96 26 98 27
12 13 114 4 196 -17z m2888 -12 c9 -11 6 -18 -12 -34 l-24 -19 30 -25 c17 -14
28 -26 25 -26 -60 -13 -110 0 -110 27 0 7 3 12 8 12 28 -5 42 3 42 24 0 15 -3
18 -8 9 -7 -9 -13 -7 -28 9 -18 20 -18 22 -1 34 20 14 61 9 78 -11z m-1013
-13 l-1 -29 -28 26 c-16 14 -29 27 -29 29 0 1 13 3 29 3 26 0 30 -3 29 -29z
m-3581 6 c-5 -15 -67 -40 -67 -27 0 5 8 11 18 11 16 1 16 2 0 6 -30 7 -20 18
18 20 22 1 34 -2 31 -10z m-1352 -15 c-3 -3 -11 0 -18 7 -9 10 -8 11 6 5 10
-3 15 -9 12 -12z m766 -2 c12 0 19 -7 19 -19 0 -19 -25 -31 -67 -31 -12 0 -25
-5 -29 -11 -5 -8 1 -10 17 -7 13 3 35 2 49 -2 14 -5 18 -9 10 -10 -11 -1 -9
-4 5 -10 19 -8 18 -9 -4 -9 l-24 -1 22 -24 c14 -15 18 -24 9 -23 -34 1 -58 -4
-58 -13 0 -5 7 -7 15 -4 9 4 15 0 15 -10 0 -23 -47 -17 -54 7 -3 12 -10 17
-20 14 -22 -9 -25 15 -4 33 26 21 15 63 -19 79 -25 12 -25 12 -7 32 16 17 26
20 63 15 24 -3 52 -6 62 -6z m4123 -14 c-3 -7 2 -16 11 -20 9 -3 13 -11 10
-17 -5 -7 -13 -4 -26 7 -23 20 -25 44 -4 44 8 0 12 -6 9 -14z m-616 -4 c18
-12 4 -42 -22 -43 -11 0 -29 -2 -38 -4 -15 -3 -15 0 -5 18 20 36 39 45 65 29z
m2202 4 c0 -2 -7 -6 -15 -10 -8 -3 -15 -1 -15 4 0 6 7 10 15 10 8 0 15 -2 15
-4z m-2135 -17 c9 -13 7 -15 -28 -23 -26 -6 -27 -5 -15 14 14 22 33 26 43 9z
m-195 -9 c0 -6 10 -15 23 -20 18 -7 19 -9 4 -9 -10 -1 -25 5 -33 13 -16 17
-18 26 -4 26 6 0 10 -5 10 -10z m797 -10 c1 -11 -2 -20 -8 -20 -5 0 -9 9 -9
20 0 11 4 20 8 20 4 0 8 -9 9 -20z m-4968 -10 c4 0 18 -8 29 -19 l22 -18 -29
1 c-16 1 -27 5 -24 10 3 4 -4 5 -16 1 -11 -3 -26 -3 -31 0 -16 10 10 37 27 30
8 -3 18 -5 22 -5z m1321 -12 c0 -6 -6 -5 -15 2 -8 7 -15 14 -15 16 0 2 7 1 15
-2 8 -4 15 -11 15 -16z m60 6 c0 -2 -7 -4 -15 -4 -8 0 -15 4 -15 10 0 5 7 7
15 4 8 -4 15 -8 15 -10z m5123 -39 c-13 -10 -20 -10 -25 -2 -10 17 0 26 22 20
19 -5 19 -6 3 -18z m-1557 0 c-10 -8 -23 -12 -28 -9 -14 9 2 24 25 24 21 -1
21 -1 3 -15z m1022 -18 c16 -13 15 -27 -3 -27 -9 0 -12 -6 -8 -17 5 -14 -1
-12 -23 7 -16 14 -33 28 -38 31 -4 4 -5 12 -2 18 8 12 53 5 74 -12z m-1647 3
c10 -6 19 -21 19 -33 0 -16 -3 -18 -9 -8 -5 8 -16 11 -29 7 -11 -4 -23 -2 -27
4 -3 5 1 10 9 10 10 0 13 6 10 15 -7 18 0 19 27 5z m-61 -4 c0 -2 -9 -6 -20
-9 -11 -3 -20 -1 -20 4 0 5 9 9 20 9 11 0 20 -2 20 -4z m-4237 -47 c7 -1 21
-1 32 0 17 2 17 0 5 -8 -10 -7 -11 -11 -2 -11 6 0 12 -4 12 -9 0 -6 -9 -9 -20
-8 -11 1 -20 5 -20 9 0 4 -8 8 -17 8 -15 0 -15 -2 -4 -9 16 -10 8 -41 -11 -41
-9 0 -9 3 2 10 11 7 12 12 3 21 -6 6 -9 17 -6 24 3 9 -2 12 -15 8 -11 -2 -22
0 -26 5 -3 5 5 13 19 16 14 4 26 12 26 19 1 6 4 2 6 -10 2 -13 10 -24 16 -24z
m1367 32 c0 -11 -27 -23 -60 -26 -14 -2 -19 -1 -12 2 6 3 9 10 6 15 -4 6 -3 9
2 6 5 -3 18 -2 29 3 27 10 35 11 35 0z m5150 0 c0 -7 -51 -31 -66 -31 -14 0 0
22 19 30 29 12 47 12 47 1z m-2943 -28 c-3 -3 -11 -2 -17 2 -9 6 -9 10 1 16
14 8 27 -7 16 -18z m1368 18 c3 -5 1 -12 -4 -16 -13 -8 -61 5 -61 16 0 12 57
12 65 0z m977 -55 c5 -22 3 -23 -24 -14 -15 6 -31 15 -35 21 -3 6 -1 7 5 3 7
-4 20 -2 29 3 10 6 19 11 19 11 1 0 4 -11 6 -24z m1289 -5 c-9 -6 -10 -11 -2
-15 6 -4 9 -12 6 -17 -6 -8 8 -13 30 -10 6 1 0 -8 -13 -18 -22 -19 -52 -19
-52 1 0 5 10 6 22 2 19 -6 21 -5 11 8 -7 8 -10 18 -6 21 3 4 2 7 -3 7 -6 0
-15 -5 -20 -10 -7 -7 -10 -4 -9 11 1 13 10 26 21 30 23 8 34 1 15 -10z m-6481
-6 c0 -9 -9 -15 -23 -15 -13 0 -28 -5 -35 -12 -6 -6 -14 -9 -18 -5 -10 10 6
27 26 27 10 0 22 5 25 10 9 15 25 12 25 -5z m5760 -15 c0 -11 -4 -20 -9 -20
-6 0 -9 9 -8 20 1 11 5 20 9 20 4 0 8 -9 8 -20z m-5140 1 c0 -6 -4 -13 -10
-16 -5 -3 -10 1 -10 9 0 9 5 16 10 16 6 0 10 -4 10 -9z m3579 -6 c-10 -10 -22
-13 -34 -9 -18 7 -18 8 1 15 10 4 26 8 34 8 12 1 12 -1 -1 -14z m-1384 -5 c3
-5 1 -10 -4 -10 -6 0 -11 5 -11 10 0 6 2 10 4 10 3 0 8 -4 11 -10z m-3585 -11
c0 -6 8 -9 18 -7 11 3 24 -2 30 -13 11 -17 9 -19 -13 -17 -14 1 -25 6 -25 11
0 5 -9 7 -20 4 -15 -4 -20 0 -20 14 0 10 7 19 15 19 8 0 15 -5 15 -11z m818
-9 c6 0 12 -9 12 -21 0 -16 -4 -19 -20 -14 -16 5 -20 2 -20 -14 0 -12 -5 -21
-11 -21 -7 0 -9 10 -5 25 5 20 3 23 -11 19 -14 -5 -15 -4 -4 4 8 6 10 15 6 22
-6 10 -2 12 16 7 13 -4 30 -7 37 -7z m5162 0 c-12 -8 -12 -10 5 -11 19 0 18
-1 -2 -11 -13 -6 -23 -20 -24 -32 0 -20 -1 -20 -9 2 -5 12 -16 22 -25 22 -8 0
-15 5 -15 11 0 6 9 9 20 6 10 -3 24 1 31 9 6 8 17 14 23 14 6 0 4 -5 -4 -10z
m594 -5 c-4 -8 -15 -15 -25 -15 -21 0 -26 16 -6 23 24 10 36 7 31 -8z m36 11
c0 -3 -4 -8 -10 -11 -5 -3 -10 -1 -10 4 0 6 5 11 10 11 6 0 10 -2 10 -4z
m-6551 -52 c2 -2 -3 -4 -12 -4 -10 0 -26 -6 -37 -12 -22 -14 -48 2 -35 21 6
10 71 6 84 -5z m1341 -18 c0 -2 -7 -6 -15 -10 -8 -3 -15 -1 -15 4 0 6 7 10 15
10 8 0 15 -2 15 -4z m5175 -16 c3 -6 -1 -7 -9 -4 -18 7 -21 14 -7 14 6 0 13
-4 16 -10z m-592 -31 c-7 -7 -22 -9 -40 -4 -24 7 -25 9 -8 13 11 2 24 8 30 13
14 14 32 -8 18 -22z m-5922 -8 c7 11 9 11 9 1 0 -8 5 -10 13 -6 8 5 9 4 2 -4
-5 -6 -23 -12 -39 -14 -38 -4 -44 -23 -9 -26 25 -2 42 -16 43 -35 0 -5 -4 -6
-9 -3 -5 4 -20 2 -33 -2 -12 -5 -34 -5 -48 -1 -16 4 -19 7 -7 8 21 1 23 21 2
21 -8 0 -15 9 -15 20 0 11 7 20 15 20 8 0 14 6 13 13 -2 6 5 11 15 9 9 -2 17
3 17 10 0 7 5 5 11 -6 9 -15 13 -16 20 -5z m6524 5 c7 3 15 -2 18 -10 9 -23
-29 -16 -43 9 -10 16 -10 18 0 8 7 -6 18 -9 25 -7z m-5835 -6 c0 -5 -5 -10
-11 -10 -5 0 -7 5 -4 10 3 6 8 10 11 10 2 0 4 -4 4 -10z m5775 -40 c-3 -5 1
-10 9 -10 8 0 18 5 21 10 10 16 32 -6 38 -38 l5 -27 -19 23 c-10 13 -23 21
-29 17 -12 -7 -40 12 -40 26 0 5 5 9 11 9 5 0 7 -4 4 -10z m760 0 c3 -5 3 -10
-2 -11 -4 0 -18 -2 -30 -5 -27 -5 -31 12 -5 19 28 8 31 7 37 -3z m-1315 -15
c0 -8 -7 -15 -15 -15 -8 0 -15 7 -15 15 0 8 7 15 15 15 8 0 15 -7 15 -15z
m-5255 -25 c-17 -19 -41 -18 -29 1 3 5 9 7 14 4 4 -3 11 2 14 11 4 9 9 14 13
10 3 -3 -2 -15 -12 -26z m64 -34 c9 -10 5 -13 -18 -12 -22 1 -27 4 -19 14 13
16 23 15 37 -2z m5793 0 c6 4 9 1 6 -6 -5 -16 -68 -24 -68 -9 0 6 7 8 15 5 10
-3 18 1 22 11 4 11 8 13 11 5 2 -7 8 -9 14 -6z m-6551 -27 c-20 -8 -25 -4 -17
16 5 13 8 14 20 3 12 -11 12 -14 -3 -19z m5926 -1 c-3 -8 -6 -5 -6 6 -1 11 2
17 5 13 3 -3 4 -12 1 -19z m-2451 -23 c-9 -9 -16 -13 -16 -8 0 12 22 34 28 28
2 -2 -3 -11 -12 -20z m54 15 c0 -5 -2 -10 -4 -10 -3 0 -8 5 -11 10 -3 6 -1 10
4 10 6 0 11 -4 11 -10z m3025 -10 c-3 -5 -12 -7 -20 -3 -21 7 -19 13 6 13 11
0 18 -4 14 -10z m690 1 c3 -5 1 -13 -5 -16 -15 -9 -43 3 -35 15 8 13 32 13 40
1z m-7271 -16 c-7 -18 12 -20 23 -2 6 10 12 9 26 -5 16 -17 16 -18 -3 -18 -24
0 -26 -13 -5 -30 8 -7 15 -19 15 -26 0 -8 -7 -15 -15 -15 -8 -1 -21 -2 -27 -3
-7 -1 -14 11 -15 27 -1 15 2 27 8 27 5 0 9 5 9 11 0 5 -5 7 -11 3 -16 -9 -30
18 -17 33 14 17 19 16 12 -2z m3473 -27 c-3 -8 -6 -5 -6 6 -1 11 2 17 5 13 3
-3 4 -12 1 -19z m90 0 c-3 -8 -6 -5 -6 6 -1 11 2 17 5 13 3 -3 4 -12 1 -19z
m3699 -35 c-10 -11 -19 -7 -22 10 -2 15 0 16 12 6 8 -6 12 -14 10 -16z m-714
-5 c4 11 68 -6 68 -18 0 -20 -67 -10 -86 12 -13 16 -14 19 -2 10 9 -7 18 -9
20 -4z m-3122 -94 c0 -8 -5 -12 -11 -9 -6 4 -17 -1 -24 -11 -14 -18 -14 -18
-15 4 0 13 6 22 15 22 8 0 15 5 15 11 0 5 5 7 10 4 6 -3 10 -13 10 -21z m3153
-1 c-7 -2 -19 -2 -25 0 -7 3 -2 5 12 5 14 0 19 -2 13 -5z m-3153 -37 c0 -3 -4
-8 -10 -11 -5 -3 -10 -1 -10 4 0 6 5 11 10 11 6 0 10 -2 10 -4z m3110 -35 c0
-5 -7 -12 -16 -15 -21 -8 -24 -8 -24 5 0 5 5 7 10 4 6 -3 10 -1 10 4 0 6 5 11
10 11 6 0 10 -4 10 -9z m-3164 -33 c5 -7 3 -8 -6 -3 -10 6 -12 3 -8 -11 4 -14
0 -20 -13 -20 -23 0 -23 1 -2 26 20 23 20 23 29 8z m3204 -38 c0 -5 -4 -10
-10 -10 -5 0 -10 5 -10 10 0 6 5 10 10 10 6 0 10 -4 10 -10z m672 -37 c-6 -2
-10 -9 -6 -14 3 -5 1 -9 -5 -9 -13 0 -22 15 -14 24 3 3 13 6 22 5 11 0 12 -2
3 -6z m-692 -42 c0 -4 -7 -8 -15 -8 -8 0 -15 6 -15 13 0 8 6 11 15 8 8 -4 15
-9 15 -13z m-3294 -61 c15 2 14 -24 -1 -44 -17 -23 -31 -15 -21 11 8 19 5 29
-6 26 -4 -2 -5 4 -1 13 4 11 8 12 13 4 4 -6 11 -11 16 -10z m-3829 -156 c-9
-9 -28 6 -21 18 4 6 10 6 17 -1 6 -6 8 -13 4 -17z m-50 -21 c-3 -10 -5 -4 -5
12 0 17 2 24 5 18 2 -7 2 -21 0 -30z m257 -358 c3 -8 1 -15 -4 -15 -6 0 -10 7
-10 15 0 8 2 15 4 15 2 0 6 -7 10 -15z m126 -187 c0 -19 -2 -20 -10 -8 -13 19
-13 30 0 30 6 0 10 -10 10 -22z m2830 2 c0 -5 -8 -10 -17 -10 -15 0 -16 2 -3
10 19 12 20 12 20 0z m100 -6 c0 -2 -7 -4 -15 -4 -8 0 -15 4 -15 10 0 5 7 7
15 4 8 -4 15 -8 15 -10z m-234 -16 c4 -7 3 -8 -4 -4 -7 4 -12 2 -12 -3 0 -6
-9 -11 -19 -11 -11 0 -22 -4 -25 -9 -9 -14 -45 -20 -53 -9 -3 6 -1 8 5 4 6 -3
13 -2 17 4 4 6 11 8 16 5 5 -4 9 -1 9 4 0 6 9 11 19 11 11 0 23 5 26 10 8 13
12 13 21 -2z m368 -7 c3 -4 -6 -6 -19 -3 -14 2 -25 6 -25 8 0 8 39 4 44 -5z
m46 -11 c0 -5 -7 -7 -15 -4 -8 4 -12 10 -9 15 6 11 24 2 24 -11z m-2953 -222
c-3 -8 -6 -5 -6 6 -1 11 2 17 5 13 3 -3 4 -12 1 -19z m693 -257 c0 -6 -4 -13
-10 -16 -5 -3 -10 1 -10 9 0 9 5 16 10 16 6 0 10 -4 10 -9z m3200 5 c0 -3 -4
-8 -10 -11 -5 -3 -10 -1 -10 4 0 6 5 11 10 11 6 0 10 -2 10 -4z m-3230 -30 c0
-2 -11 -11 -25 -20 -14 -9 -25 -13 -25 -8 0 5 10 14 23 20 27 13 27 13 27 8z
m-60 -46 c0 -5 -9 -14 -19 -19 -14 -8 -20 -7 -24 3 -4 10 0 12 14 9 10 -3 19
0 19 6 0 6 2 11 5 11 3 0 5 -4 5 -10z m1560 -350 c0 -5 -5 -10 -11 -10 -5 0
-7 5 -4 10 3 6 8 10 11 10 2 0 4 -4 4 -10z m-20 -236 c0 -8 -19 -13 -24 -6 -3
5 1 9 9 9 8 0 15 -2 15 -3z m74 -19 c-4 -8 -10 -15 -15 -15 -5 0 -9 7 -9 15 0
8 7 15 15 15 9 0 12 -6 9 -15z m-589 -55 c3 -5 1 -10 -4 -10 -6 0 -11 5 -11
10 0 6 2 10 4 10 3 0 8 -4 11 -10z m6166 -13 c-10 -9 -11 -8 -5 6 3 10 9 15
12 12 3 -3 0 -11 -7 -18z m-5631 -52 c0 -5 -4 -4 -9 3 -6 10 -10 8 -14 -9 -4
-13 -9 -21 -12 -17 -3 3 0 17 6 32 9 19 15 23 21 14 4 -7 8 -17 8 -23z m-2060
3 c0 -4 -6 -8 -14 -8 -8 0 -17 4 -20 8 -2 4 4 8 15 8 10 0 19 -4 19 -8z m1557
-86 c9 -15 8 -19 -3 -19 -7 0 -11 4 -8 9 3 4 0 8 -5 8 -6 0 -11 5 -11 10 0 16
14 12 27 -8z m87 -20 c3 -5 -1 -9 -9 -9 -8 0 -12 4 -9 9 3 4 7 8 9 8 2 0 6 -4
9 -8z m41 -44 c6 -4 2 -8 -7 -8 -10 0 -18 7 -18 17 0 9 3 12 8 7 4 -5 12 -12
17 -16z m-1755 -142 c0 -3 -4 -8 -10 -11 -5 -3 -10 -1 -10 4 0 6 5 11 10 11 6
0 10 -2 10 -4z m-16 -42 c3 -8 2 -12 -4 -9 -6 3 -10 10 -10 16 0 14 7 11 14
-7z m2772 -151 c-4 -15 -3 -23 1 -17 4 6 19 13 31 17 20 5 23 2 19 -14 -5 -19
24 -45 36 -32 4 3 12 -6 18 -21 7 -14 19 -26 26 -26 8 0 11 -4 8 -10 -3 -5 2
-10 11 -10 10 0 14 -3 11 -6 -8 -8 44 -50 57 -46 5 2 6 -6 3 -18 -3 -11 -1
-20 5 -20 5 0 7 -4 4 -9 -4 -5 3 -7 14 -4 11 3 20 0 20 -6 0 -6 -4 -11 -10
-11 -5 0 -10 -4 -10 -9 0 -4 12 -6 26 -3 23 4 25 2 19 -17 -5 -18 -2 -21 22
-21 24 -1 25 -2 10 -11 -9 -5 -22 -7 -27 -4 -16 10 -11 -11 6 -26 14 -11 18
-10 30 6 15 21 15 21 19 -15 1 -14 -2 -29 -9 -33 -6 -5 -2 -6 11 -2 27 7 40
-12 19 -28 -9 -7 -18 -23 -19 -35 -1 -21 -5 -22 -44 -16 -39 6 -51 1 -165 -64
-68 -39 -155 -86 -193 -103 -39 -18 -127 -63 -196 -101 -137 -74 -237 -112
-339 -129 -87 -14 -523 -12 -632 3 -75 10 -92 9 -127 -4 -34 -14 -42 -14 -52
-2 -8 10 -8 14 0 14 6 0 11 -5 11 -12 0 -6 3 -8 6 -5 4 4 1 14 -7 23 -12 15
-10 16 25 12 l39 -4 -27 23 c-15 13 -33 20 -39 17 -7 -4 -9 -4 -5 1 4 4 3 14
-3 22 -9 10 -8 13 4 13 8 0 17 -4 19 -9 2 -4 14 -11 28 -15 14 -3 19 -3 12 0
-6 3 -10 10 -6 15 3 5 -1 9 -9 9 -8 0 -21 8 -28 17 -10 11 -10 14 -1 9 6 -4
12 -3 12 2 0 14 49 21 57 9 3 -6 1 -7 -5 -3 -7 4 -12 2 -12 -3 0 -13 3 -13 23
-5 13 5 12 9 -6 30 -24 28 -31 54 -14 54 7 1 1 7 -13 15 l-25 14 24 1 c22 0
23 1 7 24 -10 17 -12 26 -4 28 7 3 8 10 1 23 -7 14 -6 27 2 42 11 21 11 21 23
2 7 -10 12 -25 12 -33 0 -8 4 -18 10 -21 6 -3 7 1 4 9 -4 9 -1 16 6 16 10 0
10 3 0 15 -13 15 -4 59 10 50 5 -3 6 -13 3 -21 -4 -11 0 -15 12 -12 10 2 20
-3 22 -10 3 -7 -1 -10 -11 -6 -23 9 -20 -13 7 -39 15 -16 34 -22 60 -22 24 0
44 -7 54 -17 9 -10 22 -18 29 -18 7 0 20 -7 28 -16 9 -8 16 -11 16 -6 0 5 -10
17 -22 25 -19 13 -20 16 -6 16 9 1 20 -4 23 -9 4 -6 11 -8 16 -4 6 3 18 2 27
-2 27 -11 52 -12 52 0 0 5 6 1 14 -9 11 -15 17 -17 28 -7 8 6 18 9 22 5 11
-11 66 -12 66 -2 0 14 28 11 33 -3 3 -10 7 -10 20 0 9 8 25 11 35 7 12 -3 26
1 35 9 8 9 30 18 48 21 49 8 101 26 124 41 11 8 29 14 41 14 12 0 24 5 26 10
2 6 15 12 28 14 29 3 120 46 120 57 0 4 17 10 37 14 46 8 163 107 163 136 0
10 4 19 9 19 10 0 24 36 24 63 0 9 3 17 8 17 4 0 6 15 3 34 -2 19 0 38 6 41 6
4 7 13 1 23 -4 9 -7 25 -6 35 2 10 0 31 -5 47 -6 19 -5 32 2 36 7 5 8 2 4 -7
-4 -8 2 -2 14 13 21 27 22 27 42 8 15 -14 19 -26 14 -47z m-2661 -23 c3 -5 1
-10 -4 -10 -6 0 -11 5 -11 10 0 6 2 10 4 10 3 0 8 -4 11 -10z m3182 -6 c-3 -3
-12 -4 -19 -1 -8 3 -5 6 6 6 11 1 17 -2 13 -5z m-27 -18 c0 -3 -4 -8 -10 -11
-5 -3 -10 -1 -10 4 0 6 5 11 10 11 6 0 10 -2 10 -4z m20 -26 c0 -5 -7 -10 -16
-10 -8 0 -12 5 -9 10 3 6 10 10 16 10 5 0 9 -4 9 -10z m-2867 -152 c-2 -5 -12
-8 -21 -7 -10 0 -12 3 -5 5 7 3 9 13 6 22 -6 14 -5 15 9 2 9 -8 14 -18 11 -22z
m1050 -55 c4 -3 5 -9 1 -14 -4 -6 -10 -6 -18 0 -7 6 -15 9 -18 6 -2 -3 -5 1
-5 9 0 13 15 12 40 -1z m-933 -7 c0 -2 -6 -9 -14 -15 -11 -9 -16 -9 -22 0 -4
8 -3 9 4 5 7 -4 12 -2 12 3 0 6 5 11 10 11 6 0 10 -2 10 -4z m897 -48 c-3 -7
-5 -2 -5 12 0 14 2 19 5 13 2 -7 2 -19 0 -25z m1739 -80 c-19 -26 -21 -42 -4
-32 7 4 8 3 4 -4 -14 -22 -36 -13 -36 15 0 14 3 24 6 20 4 -3 13 0 21 8 22 22
26 18 9 -7z m-1729 -14 c-3 -3 -12 -4 -19 -1 -8 3 -5 6 6 6 11 1 17 -2 13 -5z
m40 -20 c-3 -3 -12 -4 -19 -1 -8 3 -5 6 6 6 11 1 17 -2 13 -5z m-602 -104 c3
-5 1 -10 -4 -10 -6 0 -11 5 -11 10 0 6 2 10 4 10 3 0 8 -4 11 -10z m541 -92
c4 -7 3 -8 -4 -4 -7 4 -12 2 -12 -3 0 -6 5 -11 10 -11 6 0 10 -6 10 -13 0 -7
-8 -13 -18 -13 -13 0 -18 7 -16 21 1 11 3 23 3 28 1 11 19 8 27 -5z m1849
-237 c-29 -74 -26 -71 -159 -219 -123 -137 -214 -220 -324 -294 -269 -182
-602 -240 -933 -164 -140 33 -380 112 -420 139 -37 25 -72 79 -67 103 2 13 13
7 48 -25 59 -55 90 -70 240 -119 312 -101 531 -114 788 -47 213 56 407 183
583 381 29 32 89 97 134 144 45 47 92 102 104 123 13 20 24 37 26 37 2 0 -7
-27 -20 -59z m3810 39 c-3 -5 -11 -10 -16 -10 -6 0 -7 5 -4 10 3 6 11 10 16
10 6 0 7 -4 4 -10z m-426 -263 c8 -10 7 -14 -2 -14 -8 0 -14 6 -14 14 0 7 1
13 2 13 2 0 8 -6 14 -13z m-3439 -252 c9 5 10 1 5 -15 -5 -16 -4 -21 6 -18 8
3 19 -1 26 -8 17 -17 16 -25 -1 -18 -8 3 -17 0 -22 -7 -4 -8 -3 -10 5 -5 19
12 40 -13 35 -42 -10 -68 -10 -67 16 -64 24 4 25 3 5 -12 -18 -14 -18 -17 -4
-28 24 -19 32 -89 13 -116 -13 -20 -13 -21 1 -16 20 8 20 -19 0 -36 -9 -7 -14
-18 -11 -25 2 -6 -5 -17 -15 -23 -10 -7 -19 -19 -19 -26 0 -8 -35 -40 -77 -70
-43 -30 -83 -60 -90 -66 -7 -5 -16 -10 -20 -10 -4 0 -37 -14 -73 -32 -36 -17
-74 -35 -85 -39 -11 -4 -41 -17 -67 -28 -26 -12 -54 -21 -63 -21 -9 0 -14 -3
-12 -7 3 -5 -16 -9 -42 -11 -47 -2 -101 -19 -101 -31 0 -4 -13 -6 -29 -3 -20
3 -35 -2 -49 -16 -14 -14 -22 -17 -26 -9 -3 9 -7 9 -13 1 -7 -10 -67 -33 -96
-38 -7 -1 -18 -5 -25 -10 -7 -4 -19 -5 -27 -2 -8 3 -17 1 -20 -4 -3 -5 -18 -7
-33 -5 -15 1 -33 -2 -39 -7 -7 -6 -20 -8 -28 -4 -8 3 -15 2 -15 -3 0 -4 -13
-7 -30 -6 -16 1 -30 -1 -30 -4 0 -4 -28 -4 -62 0 -35 3 -74 5 -87 4 -14 -2
-31 4 -39 12 -8 7 -22 11 -32 8 -10 -3 -23 2 -31 11 -12 15 -11 16 11 9 22 -7
23 -6 11 8 -7 9 -17 14 -22 11 -14 -8 -49 6 -46 19 1 7 -5 11 -14 9 -22 -3
-36 47 -17 59 9 5 6 8 -9 6 -12 0 -19 -6 -16 -12 4 -5 -4 -1 -16 10 l-23 20
26 5 c24 5 25 7 13 30 -7 14 -23 26 -35 28 -12 2 -22 8 -22 13 0 8 15 13 33
10 4 0 7 4 7 9 0 6 -3 10 -7 10 -14 1 -43 49 -38 62 6 15 65 16 87 2 6 -4 8
-3 4 4 -3 5 0 13 6 16 7 3 4 4 -8 1 -12 -3 -27 1 -34 10 -8 10 -9 15 -1 15 6
0 11 -4 11 -10 0 -5 5 -10 11 -10 5 0 7 4 4 10 -3 6 1 7 9 4 25 -10 19 12 -6
24 -15 7 -18 11 -8 11 9 1 25 -6 37 -14 19 -13 23 -13 37 0 13 14 16 14 24 0
7 -14 13 -14 35 -4 15 7 27 16 27 20 0 8 22 6 55 -7 18 -6 17 -4 -4 19 -28 30
-18 36 19 10 17 -12 25 -13 28 -5 2 8 9 9 22 2 13 -7 19 -6 23 4 3 8 22 14 47
14 23 1 48 6 56 13 8 6 14 9 14 5 0 -4 18 3 40 14 26 13 38 25 34 33 -5 9 -4
9 6 0 9 -8 18 -9 25 -3 6 5 22 11 37 14 14 2 34 9 44 14 29 16 125 42 162 45
17 1 32 5 32 9 0 8 40 17 92 22 21 2 49 11 63 20 14 9 25 12 25 6 0 -6 9 -5
25 2 14 6 23 13 20 16 -3 3 4 10 14 16 10 6 29 17 41 25 21 12 22 12 16 -5 -6
-15 -2 -14 21 6 15 14 29 28 31 33 2 4 8 7 13 7 6 0 7 -5 3 -12 -4 -7 -3 -8 5
-4 6 4 9 12 6 17 -4 5 -1 9 5 9 6 0 8 5 5 10 -3 6 4 10 18 10 25 0 51 21 42
33 -3 4 -2 5 1 3 3 -3 17 7 31 22 14 15 20 20 14 11 -6 -9 -8 -19 -4 -22 12
-13 23 -7 23 13 0 14 7 20 22 20 12 0 18 3 15 7 -4 3 -2 12 5 20 8 10 13 11
18 2 4 -6 13 -8 20 -4z m2990 -395 c-8 -5 -19 -10 -25 -10 -5 0 -3 5 5 10 8 5
20 10 25 10 6 0 3 -5 -5 -10z m-2250 -600 c0 -5 -2 -10 -4 -10 -3 0 -8 5 -11
10 -3 6 -1 10 4 10 6 0 11 -4 11 -10z m1697 -6 c-3 -3 -12 -4 -19 -1 -8 3 -5
6 6 6 11 1 17 -2 13 -5z m20 -40 c-3 -3 -12 -4 -19 -1 -8 3 -5 6 6 6 11 1 17
-2 13 -5z m-72 -122 c-3 -3 -11 0 -18 7 -9 10 -8 11 6 5 10 -3 15 -9 12 -12z
m-36 -37 c11 -14 8 -13 -11 4 -15 13 -24 29 -21 34 4 7 8 6 11 -3 3 -8 12 -24
21 -35z m-34 -45 c3 -5 -1 -10 -10 -10 -9 0 -13 5 -10 10 3 6 8 10 10 10 2 0
7 -4 10 -10z m-105 -105 c-7 -8 -18 -15 -25 -15 -8 0 -16 -6 -18 -12 -3 -8 -6
-6 -6 5 -1 10 9 22 22 27 33 13 41 12 27 -5z"/>
<path d="M4585 7631 c-3 -5 -1 -12 5 -16 5 -3 10 1 10 9 0 18 -6 21 -15 7z"/>
<path d="M4515 7500 c-3 -5 1 -10 10 -10 9 0 13 5 10 10 -3 6 -8 10 -10 10 -2
0 -7 -4 -10 -10z"/>
<path d="M4436 7412 c-3 -5 1 -9 9 -9 8 0 12 4 9 9 -3 4 -7 8 -9 8 -2 0 -6 -4
-9 -8z"/>
<path d="M4440 7360 c-19 -14 -21 -18 -7 -16 19 2 43 23 36 30 -2 3 -15 -4
-29 -14z"/>
<path d="M4390 7340 c-9 -6 -10 -10 -3 -10 6 0 15 5 18 10 8 12 4 12 -15 0z"/>
<path d="M600 7216 c0 -2 7 -7 16 -10 8 -3 12 -2 9 4 -6 10 -25 14 -25 6z"/>
<path d="M914 6646 c11 -9 24 -16 30 -16 12 0 7 5 -24 19 -24 11 -24 11 -6 -3z"/>
<path d="M4930 6100 c0 -6 7 -10 15 -10 8 0 15 2 15 4 0 2 -7 6 -15 10 -8 3
-15 1 -15 -4z"/>
<path d="M4762 5466 c-17 -37 -15 -45 4 -18 8 12 14 27 12 33 -2 6 -9 -1 -16
-15z"/>
<path d="M4710 5390 c11 -7 11 -10 2 -10 -7 0 -10 -4 -7 -10 3 -5 1 -10 -6
-10 -7 0 -9 -3 -5 -7 8 -8 36 23 36 39 0 4 -8 8 -17 8 -15 0 -16 -2 -3 -10z"/>
<path d="M3320 5261 c0 -6 5 -13 10 -16 6 -3 10 1 10 9 0 9 -4 16 -10 16 -5 0
-10 -4 -10 -9z"/>
<path d="M3295 5230 c-3 -5 -2 -10 4 -10 5 0 13 5 16 10 3 6 2 10 -4 10 -5 0
-13 -4 -16 -10z"/>
<path d="M1155 5130 c3 -5 8 -10 11 -10 2 0 4 5 4 10 0 6 -5 10 -11 10 -5 0
-7 -4 -4 -10z"/>
<path d="M4578 5133 c7 -3 16 -2 19 1 4 3 -2 6 -13 5 -11 0 -14 -3 -6 -6z"/>
<path d="M2733 5064 c-3 -8 2 -23 11 -32 9 -10 16 -12 16 -5 0 7 -5 15 -11 18
-6 4 -8 13 -5 21 3 8 3 14 0 14 -2 0 -7 -7 -11 -16z"/>
<path d="M4410 4845 c-7 -9 -11 -17 -9 -20 3 -2 10 5 17 15 14 24 10 26 -8 5z"/>
<path d="M1296 4757 c3 -10 9 -15 12 -12 3 3 0 11 -7 18 -10 9 -11 8 -5 -6z"/>
<path d="M1310 4720 c-6 -12 -9 -24 -7 -27 3 -2 8 5 12 18 6 16 9 18 16 8 4
-7 11 -11 14 -8 3 4 -1 12 -9 18 -12 10 -17 8 -26 -9z"/>
<path d="M1357 4683 c-4 -3 -7 -11 -7 -17 0 -6 5 -5 12 2 6 6 9 14 7 17 -3 3
-9 2 -12 -2z"/>
<path d="M1638 4533 c7 -3 16 -2 19 1 4 3 -2 6 -13 5 -11 0 -14 -3 -6 -6z"/>
<path d="M1791 4396 c2 -2 15 -9 29 -16 23 -12 24 -12 11 3 -7 10 -20 17 -29
17 -8 0 -13 -2 -11 -4z"/>
<path d="M1928 8183 c7 -3 16 -2 19 1 4 3 -2 6 -13 5 -11 0 -14 -3 -6 -6z"/>
<path d="M5455 8230 c3 -5 13 -10 21 -10 8 0 14 5 14 10 0 6 -9 10 -21 10 -11
0 -17 -4 -14 -10z"/>
<path d="M1200 7820 c0 -5 5 -10 11 -10 5 0 7 5 4 10 -3 6 -8 10 -11 10 -2 0
-4 -4 -4 -10z"/>
<path d="M1195 7650 c3 -5 8 -10 11 -10 2 0 4 5 4 10 0 6 -5 10 -11 10 -5 0
-7 -4 -4 -10z"/>
<path d="M3958 4683 c7 -3 16 -2 19 1 4 3 -2 6 -13 5 -11 0 -14 -3 -6 -6z"/>
<path d="M4045 4600 c-3 -5 -1 -10 4 -10 6 0 11 5 11 10 0 6 -2 10 -4 10 -3 0
-8 -4 -11 -10z"/>
<path d="M2865 4150 c3 -5 8 -10 11 -10 2 0 4 5 4 10 0 6 -5 10 -11 10 -5 0
-7 -4 -4 -10z"/>
<path d="M2880 2837 c0 -8 7 -14 15 -14 11 0 12 4 4 14 -6 7 -13 13 -15 13 -2
0 -4 -6 -4 -13z"/>
<path d="M5706 7099 c-95 -19 -208 -81 -301 -165 l-40 -36 61 41 c84 56 198
108 281 127 160 37 381 9 553 -71 88 -41 65 -19 -30 30 -119 60 -190 77 -340
81 -74 2 -157 -1 -184 -7z"/>
<path d="M5880 6691 c-14 -3 -26 -12 -28 -20 -3 -12 0 -12 12 -2 10 9 16 9 21
1 4 -7 -2 -14 -14 -17 -25 -6 -28 -23 -3 -23 16 -1 52 -22 52 -32 0 -2 -13 -3
-30 -2 -16 1 -30 -2 -30 -6 0 -12 26 -19 52 -14 21 5 22 4 5 -9 -14 -12 -15
-16 -4 -20 8 -3 20 0 27 6 10 9 11 9 6 0 -4 -7 -2 -13 3 -13 18 0 26 5 23 13
-1 5 2 6 8 2 5 -3 10 -13 10 -22 0 -10 6 -13 16 -9 9 4 23 1 30 -5 17 -14 45
-5 40 13 -1 7 -1 10 1 6 3 -5 12 -8 21 -8 8 0 12 -3 8 -7 -4 -5 -13 -8 -19 -8
-7 0 -13 -8 -15 -17 -2 -13 1 -16 12 -12 23 9 68 -4 60 -17 -4 -8 0 -8 14 0
16 8 21 7 26 -5 4 -10 13 -13 26 -10 11 3 29 8 39 11 14 4 18 1 17 -12 -1 -13
7 -19 26 -21 19 -2 25 -8 21 -18 -3 -7 -9 -11 -14 -8 -5 3 -9 1 -9 -4 0 -5 9
-12 21 -15 15 -4 19 -2 15 9 -3 8 -1 14 4 14 6 0 10 -6 10 -14 0 -20 86 -41
109 -26 7 4 29 -1 49 -11 47 -25 61 -24 73 4 l10 22 -5 -22 c-4 -24 9 -32 17
-10 4 10 7 10 18 0 11 -11 11 -13 0 -13 -10 0 -11 -3 -2 -13 6 -8 8 -17 4 -20
-3 -4 5 -7 18 -7 21 1 22 2 6 11 -9 6 -15 15 -12 20 4 5 11 6 17 3 7 -4 8 -2
4 4 -4 8 0 12 11 12 14 1 13 4 -7 15 -14 8 -19 14 -12 15 7 0 10 4 7 10 -3 5
-2 18 4 28 8 15 6 18 -12 19 -12 1 -23 7 -25 13 -2 5 -8 10 -13 10 -6 0 -22
14 -36 31 -21 24 -148 100 -168 99 -28 0 -35 1 -35 11 0 5 6 7 13 4 6 -4 3 0
-7 9 -10 8 -23 13 -27 10 -4 -2 -33 9 -64 26 -31 17 -53 25 -50 19 5 -8 0 -9
-16 -4 -22 7 -157 16 -239 15 -19 0 -36 -5 -38 -10 -2 -6 -8 -10 -13 -10 -4 0
-6 6 -3 14 7 18 -5 24 -36 17z m704 -262 c-3 -5 -10 -7 -15 -3 -5 3 -7 10 -3
15 3 5 10 7 15 3 5 -3 7 -10 3 -15z m48 -14 c0 -5 -5 -11 -11 -13 -6 -2 -11 4
-11 13 0 9 5 15 11 13 6 -2 11 -8 11 -13z m-82 -55 c0 -5 -2 -10 -4 -10 -3 0
-8 5 -11 10 -3 6 -1 10 4 10 6 0 11 -4 11 -10z"/>
<path d="M5830 6620 c0 -5 5 -10 10 -10 6 0 10 5 10 10 0 6 -4 10 -10 10 -5 0
-10 -4 -10 -10z"/>
<path d="M6660 6386 c0 -2 7 -7 16 -10 8 -3 12 -2 9 4 -6 10 -25 14 -25 6z"/>
<path d="M8160 6377 c0 -2 24 -12 53 -21 46 -15 72 -26 166 -70 45 -21 164
-141 212 -215 27 -40 49 -70 49 -66 0 15 -63 125 -72 125 -5 0 -6 5 -3 10 3 6
1 10 -5 10 -6 0 -8 5 -5 11 4 6 -2 13 -14 16 -11 3 -19 9 -16 13 3 4 -17 28
-43 52 -62 58 -205 129 -272 136 -27 2 -50 2 -50 -1z"/>
<path d="M6450 6350 c-13 -8 -12 -10 3 -10 9 0 17 -5 17 -12 0 -6 3 -9 6 -5 3
3 2 12 -3 21 -6 10 -13 12 -23 6z"/>
<path d="M6490 6336 c0 -10 9 -20 21 -23 16 -5 18 -8 7 -15 -10 -8 -9 -9 4 -4
20 6 34 -10 16 -17 -9 -4 -10 -6 -1 -6 6 -1 14 3 17 8 3 5 15 7 26 4 11 -3 20
0 20 6 0 6 -10 9 -22 7 -15 -2 -34 7 -55 27 -27 25 -33 28 -33 13z"/>
<path d="M6675 6341 c-3 -5 -2 -12 3 -15 5 -3 9 1 9 9 0 17 -3 19 -12 6z"/>
<path d="M6567 6324 c-4 -4 -4 -10 -1 -15 6 -10 34 0 34 12 0 10 -24 12 -33 3z"/>
<path d="M6657 6293 c-10 -9 -9 -23 1 -23 5 0 9 7 9 15 0 17 -1 18 -10 8z"/>
<path d="M6585 6260 c-3 -6 1 -7 9 -4 18 7 21 14 7 14 -6 0 -13 -4 -16 -10z"/>
<path d="M5790 6205 c-93 -18 -473 -121 -509 -138 -20 -9 -27 -21 -29 -50 -3
-35 2 -43 58 -98 180 -176 349 -291 512 -347 93 -32 114 -36 213 -36 135 -1
193 17 263 79 184 166 83 493 -178 576 -84 27 -230 33 -330 14z"/>
<path d="M7575 6130 c-100 -21 -215 -64 -215 -81 0 -5 -7 -9 -16 -9 -23 0
-152 -133 -160 -165 -3 -14 -10 -25 -15 -25 -5 0 -9 -5 -9 -11 0 -6 -10 -25
-23 -42 -13 -18 -23 -39 -22 -47 0 -8 -6 -25 -13 -38 -8 -12 -13 -24 -11 -26
2 -2 13 -8 24 -15 19 -11 19 -11 1 -9 -10 2 -21 -3 -24 -11 -3 -10 0 -12 12
-8 10 4 15 3 11 -3 -3 -6 -1 -10 4 -10 6 0 11 -5 11 -11 0 -6 -9 -9 -20 -6
-19 5 -19 4 -2 -18 9 -13 18 -19 20 -15 2 5 9 7 17 4 7 -3 16 0 20 5 6 10 63
38 83 41 4 1 10 10 14 21 4 11 12 17 18 14 5 -3 10 -1 10 4 0 6 9 11 19 11 10
0 22 7 25 16 3 8 10 12 16 9 5 -3 10 -1 10 4 0 6 13 11 28 11 15 0 33 5 40 12
6 6 17 13 24 14 7 2 40 10 73 19 33 9 68 14 77 12 9 -3 25 3 35 12 25 21 44
25 37 6 -7 -17 11 -21 21 -5 4 6 20 7 38 3 18 -4 47 -7 65 -7 18 0 28 -3 21
-6 -6 -5 -3 -9 10 -13 12 -3 22 1 25 9 3 8 11 14 18 13 10 0 10 -2 1 -6 -7 -2
-13 -9 -13 -14 0 -6 6 -9 13 -8 6 1 26 -4 42 -11 17 -7 49 -13 72 -13 36 0 39
-2 27 -14 -17 -18 -18 -27 -1 -16 21 13 35 12 42 -5 6 -15 8 -15 21 2 8 11 14
15 14 8 0 -6 6 -9 14 -6 7 3 31 -5 52 -18 21 -12 43 -23 49 -24 5 0 19 -2 30
-3 19 -2 19 -2 3 -15 -28 -21 -23 -39 9 -32 17 5 29 3 34 -6 7 -10 11 -10 21
0 10 10 10 15 -2 22 -11 7 -10 9 8 7 14 -1 21 -6 18 -14 -3 -7 2 -13 12 -14 9
0 26 -3 37 -6 11 -2 28 -5 37 -6 9 -1 14 -5 12 -9 -3 -4 2 -8 11 -8 9 0 14 -4
11 -9 -4 -5 4 -7 16 -4 22 5 22 5 5 -13 -14 -15 -21 -17 -37 -6 -16 10 -18 9
-14 -3 8 -19 48 -19 63 -1 7 8 21 12 31 9 30 -8 24 3 -16 27 -19 12 -33 25
-30 27 3 3 16 -1 29 -10 14 -9 29 -12 38 -6 13 6 15 3 11 -22 -3 -18 0 -29 8
-29 7 0 9 -8 4 -22 -6 -20 -5 -21 10 -9 9 8 19 11 23 7 3 -3 1 -6 -5 -6 -7 0
-12 -7 -12 -15 0 -9 9 -15 23 -14 17 1 18 2 4 6 -14 4 -16 8 -6 19 6 8 8 14 4
14 -4 0 -1 8 6 18 13 16 12 16 -4 3 -16 -13 -20 -13 -28 0 -6 11 0 17 29 26
20 6 31 12 24 12 -7 1 -11 5 -8 9 9 14 -32 42 -51 35 -17 -7 -17 -6 0 11 20
21 14 38 -11 29 -15 -6 -15 -5 -4 10 12 14 12 19 -1 32 -9 8 -22 15 -29 15
-11 0 -11 2 0 9 11 6 7 13 -13 29 -15 12 -32 19 -39 16 -6 -3 -2 2 8 10 15 12
16 16 5 16 -8 0 -30 19 -49 42 -53 62 -113 118 -126 118 -6 0 -17 7 -24 15 -7
8 -16 12 -21 9 -5 -3 -9 -1 -9 5 0 5 -10 13 -22 17 -13 3 -34 14 -48 24 -14 9
-50 25 -80 35 -30 10 -64 21 -75 26 -31 13 -102 30 -143 34 -96 10 -271 13
-307 5z m355 -344 c0 -2 -7 -7 -16 -10 -8 -3 -12 -2 -9 4 6 10 25 14 25 6z
m27 -22 c-3 -3 -12 -4 -19 -1 -8 3 -5 6 6 6 11 1 17 -2 13 -5z m63 -14 c-14
-4 -32 -8 -40 -9 -13 -1 -13 0 0 9 8 5 26 9 40 9 l25 -1 -25 -8z m295 -88 c-3
-3 -11 0 -18 7 -9 10 -8 11 6 5 10 -3 15 -9 12 -12z m45 -12 c0 -5 -4 -10 -10
-10 -5 0 -10 5 -10 10 0 6 5 10 10 10 6 0 10 -4 10 -10z m45 0 c3 -5 -1 -10
-10 -10 -9 0 -13 5 -10 10 3 6 8 10 10 10 2 0 7 -4 10 -10z m-125 -10 c0 -5
-4 -10 -10 -10 -5 0 -10 5 -10 10 0 6 5 10 10 10 6 0 10 -4 10 -10z m167 -31
c1 -19 1 -20 -4 -4 -3 11 -10 24 -17 28 -7 6 -6 7 4 4 8 -2 16 -14 17 -28z"/>
<path d="M8664 5928 c8 -36 24 -78 30 -78 6 0 -22 92 -30 99 -4 3 -4 -6 0 -21z"/>
<path d="M8182 5634 c10 -10 20 -15 24 -12 3 4 -5 12 -18 18 -22 12 -22 12 -6
-6z"/>
<path d="M8373 5585 c0 -8 4 -12 9 -9 5 3 6 10 3 15 -9 13 -12 11 -12 -6z"/>
<path d="M7555 5567 c-68 -23 -101 -44 -148 -97 -56 -62 -81 -131 -80 -222 1
-92 34 -161 116 -242 112 -113 256 -166 447 -166 162 0 340 39 386 85 35 35
30 75 -21 174 -128 248 -267 393 -432 453 -72 26 -211 34 -268 15z"/>
<path d="M8380 5546 c0 -2 7 -7 16 -10 8 -3 12 -2 9 4 -6 10 -25 14 -25 6z"/>
<path d="M8510 5526 c0 -2 7 -6 15 -10 8 -3 15 -1 15 4 0 6 -7 10 -15 10 -8 0
-15 -2 -15 -4z"/>
<path d="M8464 5504 c-10 -8 -14 -13 -7 -10 17 9 70 -13 55 -23 -10 -6 -9 -11
3 -21 13 -11 15 -10 9 3 -4 12 -1 14 17 10 15 -4 20 -3 15 6 -4 6 -12 9 -17 6
-5 -4 -9 -2 -9 4 0 5 -9 13 -20 16 -11 4 -18 11 -15 16 10 14 -9 11 -31 -7z"/>
<path d="M8758 5128 c2 -10 6 -18 8 -18 2 0 8 8 13 18 7 14 6 18 -8 18 -12 0
-17 -6 -13 -18z"/>
<path d="M6077 4478 c7 -8 10 -18 6 -21 -3 -4 -1 -12 4 -19 5 -7 13 -22 17
-32 6 -17 5 -17 -10 -5 -16 13 -16 12 -1 -18 21 -40 58 -65 127 -87 100 -32
260 -104 260 -118 0 -3 13 -20 30 -36 58 -59 289 -103 344 -66 16 10 33 13 47
9 22 -7 47 -13 63 -14 4 -1 6 -7 4 -13 -3 -7 4 -21 14 -30 10 -10 18 -15 18
-12 0 4 7 1 15 -6 12 -10 15 -9 15 6 0 17 1 17 13 1 11 -16 14 -15 31 8 24 31
30 31 44 0 6 -14 18 -25 26 -25 11 0 12 8 6 38 -8 32 -7 35 5 19 12 -16 13
-14 14 20 5 118 -1 174 -28 262 -25 83 -29 91 -35 65 -4 -16 -14 -53 -22 -82
-14 -49 -16 -52 -36 -41 -12 7 -38 13 -57 14 -20 2 -49 9 -66 16 -16 7 -34 11
-38 10 -11 -2 -37 25 -37 38 0 6 -9 11 -20 11 -12 0 -32 7 -45 16 -13 9 -29
13 -35 9 -5 -3 -10 -2 -10 4 0 5 -12 7 -27 5 -48 -9 -153 -9 -153 -1 0 5 -5 5
-10 2 -6 -3 -23 3 -38 13 -15 11 -39 20 -52 20 -14 1 -54 1 -90 2 -36 1 -69 1
-75 -1 -17 -4 -88 13 -120 29 -25 13 -28 13 -18 1 18 -23 -26 -19 -62 5 -20
13 -26 14 -18 4z"/>
<path d="M7130 3986 c0 -2 8 -10 18 -17 15 -13 16 -12 3 4 -13 16 -21 21 -21
13z"/>
<path d="M5825 3915 c-75 -20 -143 -49 -212 -89 -155 -91 -359 -269 -425 -370
-32 -50 -38 -67 -38 -113 0 -119 91 -196 231 -196 57 0 79 6 165 46 140 64
210 80 314 74 96 -6 191 -33 300 -85 105 -51 216 -164 288 -294 66 -119 109
-170 167 -198 128 -62 255 18 255 163 0 105 -91 406 -176 586 -97 203 -191
309 -352 394 -165 87 -375 120 -517 82z"/>
<path d="M7705 3620 c3 -5 8 -10 11 -10 2 0 4 5 4 10 0 6 -5 10 -11 10 -5 0
-7 -4 -4 -10z"/>
<path d="M5682 3010 c-56 -13 -122 -41 -122 -51 0 -6 5 -7 10 -4 6 4 79 8 163
9 113 1 155 -1 165 -11 7 -7 27 -13 43 -13 16 0 29 -4 29 -10 0 -5 8 -10 18
-9 10 0 12 3 5 6 -7 2 -13 9 -13 14 0 5 18 0 40 -11 21 -11 45 -20 53 -20 7 0
48 -22 90 -50 42 -27 79 -50 82 -50 7 0 -33 46 -70 81 -42 41 -157 94 -242
113 -75 17 -194 20 -251 6z"/>
<path d="M6825 2540 c3 -5 8 -10 11 -10 2 0 4 5 4 10 0 6 -5 10 -11 10 -5 0
-7 -4 -4 -10z"/>
<path d="M6238 2053 c7 -3 16 -2 19 1 4 3 -2 6 -13 5 -11 0 -14 -3 -6 -6z"/>
<path d="M8374 938 l-29 -33 33 29 c17 17 32 31 32 33 0 8 -8 1 -36 -29z"/>
<path d="M1160 906 c0 -2 8 -10 18 -17 15 -13 16 -12 3 4 -13 16 -21 21 -21
13z"/>
</g>
</svg>
